<svg version="1.1" id="Layer_1" xmlns="http://www.w3.org/2000/svg" xmlns:xlink="http://www.w3.org/1999/xlink" x="0px" y="0px"
	 width="100%" viewBox="0 0 180 290" enable-background="new 0 0 180 290" xml:space="preserve">
<path fill="#000000" opacity="1.000000" stroke="none" 
	d="
M1.000000,116.000000 
	C1.000000,77.333344 1.000000,39.166683 1.000000,1.000021 
	C60.999973,1.000014 120.999947,1.000014 180.999939,1.000007 
	C180.999969,97.666618 180.999969,194.333237 180.999985,290.999878 
	C121.000061,290.999939 61.000122,290.999939 1.000091,290.999969 
	C1.000000,232.833328 1.000000,174.666672 1.000000,116.000000 
M26.836899,141.227173 
	C26.702049,141.500824 26.777632,141.708618 27.072351,142.486786 
	C27.067471,142.698807 27.062588,142.910843 26.861862,143.268127 
	C26.735325,143.521667 26.803871,143.716965 27.192856,144.429352 
	C27.248634,144.617538 27.304413,144.805740 27.253643,145.917892 
	C27.278770,150.256073 27.303898,154.594238 27.160250,159.680511 
	C27.228682,163.126633 27.297113,166.572739 27.255026,170.697952 
	C27.212046,171.154602 27.169065,171.611252 26.702065,172.769592 
	C26.837461,179.842163 26.972860,186.914734 27.082733,194.546097 
	C27.065065,194.731735 27.047396,194.917358 26.802910,195.257996 
	C26.652853,195.538864 26.731039,195.754837 27.028868,195.969131 
	C27.028868,195.969131 27.092653,195.968353 27.050850,196.649490 
	C26.702705,203.964111 26.828310,204.085297 34.490826,203.530685 
	C34.490826,203.530685 34.758793,203.399231 35.528728,203.490128 
	C36.032902,203.392700 36.537075,203.295273 37.048683,203.068314 
	C37.048683,203.068314 36.919167,203.060898 37.130207,203.369400 
	C37.130207,203.369400 37.468582,203.525452 37.468582,203.525452 
	C37.468582,203.525452 37.840622,203.504959 38.616337,203.519699 
	C39.391972,203.534866 40.167606,203.550018 41.549263,203.980270 
	C42.331707,205.661377 43.114151,207.342499 43.632797,209.798599 
	C42.371334,217.854080 42.155445,225.278534 49.595840,231.297058 
	C56.188438,236.629852 61.884052,243.071518 68.165688,249.650940 
	C69.451759,251.105103 70.737823,252.559265 71.836182,254.621582 
	C71.589455,255.424713 71.342728,256.227844 70.620155,257.665619 
	C67.974747,264.165466 73.318794,271.541168 78.392052,272.583496 
	C85.622192,274.068878 91.899689,270.783356 93.688438,264.213898 
	C95.326508,258.197906 91.310799,250.131577 85.111969,249.586227 
	C78.966805,249.045609 75.783531,245.278793 72.048462,241.649536 
	C69.553757,239.225494 67.050720,236.810043 64.227448,233.954819 
	C63.710480,233.445419 63.193508,232.936020 62.241741,231.916306 
	C59.165112,228.927032 56.088482,225.937759 52.722416,222.463455 
	C52.415783,221.990662 52.109150,221.517868 51.898136,220.194199 
	C51.852489,218.491745 51.806843,216.789291 51.840164,214.165970 
	C51.900906,210.809509 51.961643,207.453064 52.931297,204.033249 
	C54.927170,204.022339 56.925564,204.071014 58.918320,203.986557 
	C61.909645,203.859756 63.490101,205.357193 62.971954,208.195694 
	C61.489964,216.314255 66.653931,220.694565 72.285316,225.441818 
	C72.503288,225.684708 72.759979,225.875534 73.258743,226.431961 
	C73.443748,226.692398 73.683853,226.883698 73.976112,227.022980 
	C73.976112,227.022980 73.993988,227.037552 74.336159,227.604294 
	C81.804199,235.146057 89.364571,242.600616 96.650726,250.314194 
	C97.886261,251.622208 98.542610,254.079498 98.430794,255.943710 
	C98.111275,261.271210 100.968079,266.596008 105.599113,268.229004 
	C110.964027,270.120758 115.775490,269.023743 119.203873,265.127075 
	C122.015526,261.931366 122.865440,254.652817 120.847809,251.048294 
	C118.564468,246.969086 113.262695,244.737717 108.006294,245.219009 
	C106.253502,245.379517 103.877892,245.153809 102.708641,244.090851 
	C98.922867,240.649292 95.564987,236.737045 92.768364,232.964523 
	C93.494576,232.922302 94.220795,232.880096 95.875801,232.954529 
	C99.898865,232.904404 103.921921,232.854279 108.818108,232.882599 
	C110.858658,232.860748 112.899216,232.838913 115.747887,232.919449 
	C116.830276,232.879364 117.912666,232.839264 119.629372,232.895172 
	C120.054764,232.939346 120.480164,232.983521 121.081017,233.668793 
	C122.243484,234.909073 123.405952,236.149368 124.512619,237.367874 
	C124.512619,237.367874 124.493034,237.423141 124.880272,238.029358 
	C131.157715,242.623764 137.132339,241.824280 141.696930,235.779068 
	C145.492706,230.752045 144.531921,223.304291 139.566727,219.266785 
	C134.568146,215.202103 127.079315,216.104675 122.566681,220.991013 
	C121.271973,222.392899 119.172287,223.839050 117.404457,223.886826 
	C106.944527,224.169495 96.472786,224.116196 86.007278,223.989151 
	C84.310608,223.968552 82.293198,223.439621 80.991127,222.420883 
	C74.761086,217.546417 69.771812,211.943481 72.826202,203.009033 
	C74.877930,202.627106 76.929657,202.245178 79.715462,201.996567 
	C92.358742,203.687057 103.738617,191.381393 103.891930,180.905014 
	C104.093979,167.099228 104.089226,153.287003 103.908997,139.481003 
	C103.849220,134.902786 105.948395,132.716843 110.093323,131.956299 
	C112.209679,131.567993 114.353722,131.086075 116.487236,131.076187 
	C128.745499,131.019363 139.241486,119.312042 141.650970,107.829399 
	C141.864151,106.813438 140.137756,104.364922 139.169067,104.283447 
	C128.177612,103.359016 118.418137,106.047630 111.391647,115.217934 
	C108.974327,118.372787 106.964325,121.839729 104.261192,125.931694 
	C104.075569,121.985214 103.936096,119.019798 103.785515,115.576004 
	C103.785515,115.576004 103.683258,115.108559 103.741348,114.650795 
	C103.741348,114.650795 103.643936,114.199753 103.401802,113.954445 
	C103.401802,113.954445 103.071121,114.051704 103.520081,113.910736 
	C103.740433,113.660095 103.834282,113.368721 103.887428,112.372032 
	C103.942551,111.928833 103.997673,111.485626 104.533356,110.580856 
	C104.652122,109.703117 104.770889,108.825371 105.336693,107.603889 
	C105.564720,107.094841 105.792747,106.585800 106.585419,105.704086 
	C110.771477,103.153305 114.912674,100.524864 119.156235,98.073631 
	C123.389946,95.628090 127.726234,93.360100 131.999680,90.999840 
	C131.999680,90.999840 132.013641,91.018631 132.664398,90.926308 
	C133.929794,89.800545 135.195206,88.674782 136.538879,87.521248 
	C136.538879,87.521248 136.559906,87.440895 137.103287,87.074219 
	C143.500885,80.629204 148.136429,73.295677 148.820663,63.305283 
	C148.830887,62.878941 148.841125,62.452599 149.308670,61.372017 
	C149.362625,58.197632 152.400742,53.779842 145.227661,53.235329 
	C144.501663,53.265144 143.775665,53.294960 142.172775,53.192860 
	C133.592545,52.496128 126.845695,56.218788 120.557373,62.229885 
	C120.311050,62.420975 120.121727,62.657661 119.437180,63.261719 
	C118.323975,64.522583 117.210777,65.783447 116.033257,67.042053 
	C116.033257,67.042053 116.048836,67.104485 115.458916,67.413353 
	C113.429832,70.636185 111.400749,73.859016 109.213837,77.579430 
	C109.170280,77.747887 109.126732,77.916351 108.466545,78.403412 
	C105.740387,84.211281 103.014221,90.019157 100.353340,95.687950 
	C97.469482,89.997185 94.706589,84.545113 91.969208,79.031631 
	C91.969208,79.031631 91.906219,79.052956 91.864403,78.325287 
	C89.581161,74.862358 87.297928,71.399437 84.760239,67.546265 
	C84.554184,67.305283 84.304771,67.123909 83.703949,66.409546 
	C76.531250,57.636906 67.633324,52.339264 55.957947,53.257313 
	C54.325993,53.385635 51.673820,55.086555 51.499069,56.339237 
	C51.060276,59.484756 51.770073,62.790504 52.069221,66.665512 
	C52.134010,67.083611 52.198799,67.501701 52.284042,68.664955 
	C55.221733,77.731438 59.354290,85.955956 68.376900,91.428276 
	C68.906837,91.621475 69.436768,91.814674 70.380318,92.551895 
	C76.594322,95.348907 82.808327,98.145920 89.006348,100.998077 
	C89.006348,100.998077 89.054863,100.967239 89.377586,101.550140 
	C90.833107,103.071747 92.756081,104.369621 93.619904,106.174431 
	C94.590599,108.202553 94.605064,110.688332 95.027855,112.980881 
	C95.027855,112.980881 95.031227,112.960388 94.663406,112.404930 
	C90.723137,107.175659 86.562943,102.174576 79.247177,102.114700 
	C68.485497,102.026611 57.707355,101.752068 46.964916,102.218224 
	C38.613159,102.580643 31.460802,105.661705 28.449770,114.636368 
	C28.449770,114.636368 28.518816,114.717339 27.997869,115.247818 
	C27.717901,118.494942 27.437935,121.742058 27.087273,125.089500 
	C27.087273,125.089500 27.098116,125.211746 26.927967,125.287193 
	C26.927967,125.287193 26.886736,125.536095 26.886736,125.536095 
	C26.886736,125.536095 27.101582,125.677437 27.115753,126.350197 
	C27.121393,126.574432 27.127035,126.798660 26.909197,127.385941 
	C27.040152,127.933647 27.171104,128.481354 27.242548,129.693039 
	C27.251059,130.137283 27.259571,130.581528 26.989288,131.547653 
	C27.062840,133.683273 27.136391,135.818909 27.199482,138.643005 
	C27.208160,139.101929 27.216839,139.560852 27.088390,140.516098 
	C27.076565,140.687332 27.064739,140.858566 26.997305,141.027603 
	C26.997305,141.027603 27.040724,141.062561 26.836899,141.227173 
M112.198196,66.298340 
	C112.198196,66.298340 112.447296,66.339119 112.984627,66.039520 
	C113.628723,65.016037 114.272827,63.992558 114.972107,62.979496 
	C114.972107,62.979496 114.977249,62.923573 115.564217,62.782516 
	C116.039787,62.183380 116.515358,61.584240 116.998222,60.998295 
	C116.998222,60.998295 116.982971,60.990280 117.638153,60.801502 
	C118.066322,58.851982 118.494492,56.902462 118.887383,54.342239 
	C118.854935,53.935932 118.822487,53.529625 118.865341,52.322643 
	C116.989037,42.580467 112.471474,34.519917 103.992180,29.007381 
	C103.992180,29.007381 104.023430,28.998390 103.849976,28.370562 
	C99.550201,24.638964 97.959251,25.057945 93.998466,31.002445 
	C93.998466,31.002445 93.977974,30.956520 93.381340,31.142214 
	C92.769104,31.929829 92.156868,32.717445 91.439270,33.492683 
	C91.439270,33.492683 91.416466,33.596291 90.892006,33.931519 
	C89.922356,35.288795 88.952705,36.646072 88.006798,38.006855 
	C88.006798,38.006855 88.000710,37.983913 87.422729,38.352028 
	C85.684502,42.263687 83.946266,46.175350 82.085938,50.475212 
	C82.085938,50.475212 81.984932,50.869423 81.453148,51.497253 
	C81.712105,54.536484 81.055023,58.110073 82.443550,60.490376 
	C84.554695,64.109444 88.084351,66.901039 91.115425,70.450829 
	C91.115425,70.450829 91.243744,70.850525 91.442780,71.514832 
	C94.385727,77.016426 97.328674,82.518021 100.488670,88.425362 
	C104.258461,81.044617 107.597191,74.507866 110.991631,67.994400 
	C110.991631,67.994400 110.977966,67.935585 111.481400,67.629829 
	C111.698158,67.104836 111.914925,66.579842 112.198196,66.298340 
z"/>
<path fill="#123F62" opacity="1.000000" stroke="none" 
	d="
M52.263588,67.919800 
	C52.198799,67.501701 52.134010,67.083611 52.181118,66.020012 
	C53.033710,62.199127 53.774403,59.023743 54.521999,55.818768 
	C64.421585,53.372025 71.907707,58.116074 79.121361,63.802544 
	C80.645325,65.003868 82.376381,65.942490 84.012016,67.002151 
	C84.304771,67.123909 84.554184,67.305283 84.906158,68.162003 
	C85.805717,73.224129 84.890175,78.783951 91.906219,79.052956 
	C91.906219,79.052956 91.969208,79.031631 92.008972,79.413345 
	C93.041931,85.389099 93.878113,91.019165 95.147408,96.549843 
	C95.436440,97.809250 97.231949,99.630287 98.319839,99.620430 
	C101.043976,99.595749 103.759949,98.669662 106.479195,98.105194 
	C106.114487,97.679962 105.749779,97.254730 105.385063,96.829498 
	C105.788757,94.074051 106.075584,91.295029 106.625328,88.569031 
	C107.334579,85.052109 108.254173,81.577599 109.083176,78.084824 
	C109.126732,77.916351 109.170280,77.747887 109.576324,77.181595 
	C111.975494,73.557343 114.012169,70.330917 116.048836,67.104485 
	C116.048836,67.104485 116.033257,67.042053 116.369072,66.987427 
	C117.799721,65.601837 118.894562,64.270889 119.989403,62.939941 
	C120.121727,62.657661 120.311050,62.420975 121.053772,62.160145 
	C128.066879,59.908371 134.600891,57.775257 141.078354,55.482403 
	C141.888519,55.195625 142.399857,54.064613 143.049667,53.324776 
	C143.775665,53.294960 144.501663,53.265144 145.688721,53.630310 
	C147.050308,56.692280 147.950821,59.359268 148.851349,62.026257 
	C148.841125,62.452599 148.830887,62.878941 148.546326,63.842319 
	C146.856506,66.948059 145.530487,69.571320 144.004822,72.072823 
	C141.650925,75.932312 139.944656,80.875114 136.504471,83.187820 
	C133.145950,85.445625 131.945648,87.488480 132.013641,91.018631 
	C132.013641,91.018631 131.999680,90.999840 131.622437,91.040810 
	C124.257416,93.990654 117.316376,97.020271 110.260254,99.752678 
	C107.168388,100.949966 105.682808,102.792038 106.020782,106.076752 
	C105.792747,106.585800 105.564720,107.094841 104.927124,107.848938 
	C104.362640,109.076797 104.207718,110.059608 104.052795,111.042427 
	C103.997673,111.485626 103.942551,111.928833 103.719818,112.870987 
	C103.391426,113.596901 103.231064,113.824158 103.071121,114.051704 
	C103.071121,114.051704 103.401802,113.954445 103.484192,114.192375 
	C103.520882,114.669586 103.559776,114.895668 103.683258,115.108559 
	C103.683258,115.108559 103.785515,115.576004 103.375801,115.805939 
	C99.824631,116.116714 97.097542,116.112892 97.500816,111.485634 
	C98.083519,104.799789 95.758224,102.181793 89.054863,100.967239 
	C89.054863,100.967239 89.006348,100.998077 88.852097,100.674377 
	C82.972984,96.404831 77.661652,91.530525 69.966705,92.007874 
	C69.436768,91.814674 68.906837,91.621475 68.137527,90.856339 
	C66.874916,88.628448 65.841225,86.978844 64.830482,85.315308 
	C62.132915,80.875534 59.573967,76.343597 56.687538,72.030579 
	C55.598015,70.402573 53.760262,69.275322 52.263588,67.919800 
M88.961098,92.010033 
	C88.961098,92.010033 88.966415,91.968666 88.961098,92.010033 
z"/>
<path fill="#173855" opacity="1.000000" stroke="none" 
	d="
M89.216225,101.258690 
	C95.758224,102.181793 98.083519,104.799789 97.500816,111.485634 
	C97.097542,116.112892 99.824631,116.116714 103.381355,116.045120 
	C103.936096,119.019798 104.075569,121.985214 104.261192,125.931694 
	C106.964325,121.839729 108.974327,118.372787 111.391647,115.217934 
	C118.418137,106.047630 128.177612,103.359016 139.169067,104.283447 
	C140.137756,104.364922 141.864151,106.813438 141.650970,107.829399 
	C139.241486,119.312042 128.745499,131.019363 116.487236,131.076187 
	C114.353722,131.086075 112.209679,131.567993 110.093323,131.956299 
	C105.948395,132.716843 103.849220,134.902786 103.908997,139.481003 
	C104.089226,153.287003 104.093979,167.099228 103.891930,180.905014 
	C103.738617,191.381393 92.358742,203.687057 79.360802,201.578064 
	C79.022766,200.455597 79.039391,199.751663 79.454796,199.036804 
	C85.509033,198.759750 91.589111,199.444794 94.936859,192.599472 
	C88.208336,194.151917 82.088028,195.564026 75.635147,197.041061 
	C68.867966,197.065765 62.433372,197.025574 55.539509,196.983398 
	C51.053566,196.318207 47.026894,195.654999 43.454334,195.005325 
	C55.864384,194.700745 67.824966,194.500092 79.774796,194.027451 
	C89.374588,193.647751 95.989243,186.920227 96.067322,177.324356 
	C96.208244,160.004211 95.999702,142.681244 96.140747,125.361107 
	C96.174309,121.239708 94.684456,119.797386 90.606285,119.876320 
	C79.951225,120.082558 69.290245,120.000992 58.631626,120.000687 
	C42.532898,120.000214 44.107174,118.441078 43.781738,134.767319 
	C43.677792,139.981903 45.687744,141.339020 50.522495,141.178177 
	C59.339966,140.884842 68.176369,140.994675 76.999329,141.188583 
	C78.545464,141.222565 80.878220,142.090103 81.453468,143.258896 
	C83.795433,148.017197 79.450043,157.000488 74.123085,157.930374 
	C68.939323,158.835266 63.572006,158.914215 58.282768,158.946716 
	C42.660000,159.042694 43.977982,157.513916 43.834160,173.610840 
	C43.770443,180.742203 43.296658,187.869904 42.681488,194.916138 
	C40.919010,194.203033 39.484058,193.573044 37.806328,192.811676 
	C37.072899,192.431564 36.582253,192.182861 36.086143,191.616486 
	C36.065098,190.875488 36.049515,190.452164 36.327610,189.917419 
	C37.418613,189.545441 38.215935,189.284866 39.305717,188.844513 
	C40.392490,186.774933 41.186802,184.885117 41.846031,182.728027 
	C41.146538,181.640625 40.582130,180.820511 40.063404,179.662994 
	C40.090031,173.888077 40.070980,168.450531 40.219265,162.715759 
	C41.263126,160.283524 42.139652,158.148514 43.421356,156.036880 
	C46.217930,156.358704 48.609318,156.657181 51.277748,157.030670 
	C52.710548,156.742844 53.866306,156.380005 55.354797,155.951538 
	C59.790344,155.934525 63.893154,155.983124 68.378723,155.995972 
	C70.904114,155.142700 73.603882,154.862717 75.045395,153.368683 
	C76.765930,151.585464 78.212509,148.748993 78.172745,146.395889 
	C78.153450,145.254257 74.567764,143.509415 72.433609,143.213440 
	C68.690804,142.694366 64.822464,143.080505 60.577099,143.081680 
	C58.428471,143.079651 56.709457,143.083389 54.603020,143.083984 
	C52.472008,143.371735 50.728416,143.662613 48.587505,143.953888 
	C47.131969,143.962204 46.073753,143.970139 44.752930,143.784424 
	C43.332798,142.066299 41.207355,140.550583 41.193401,139.015671 
	C41.145351,133.730927 41.609467,128.409302 42.310566,123.159447 
	C42.948036,118.386063 46.565357,116.261734 51.128208,117.398590 
	C52.248600,117.677742 53.419579,117.917747 54.564915,117.907547 
	C66.008644,117.805641 77.451622,117.605293 88.895432,117.532066 
	C92.168533,117.511116 94.338951,116.315117 95.035530,112.975014 
	C94.605064,110.688332 94.590599,108.202553 93.619904,106.174431 
	C92.756081,104.369621 90.833107,103.071747 89.216225,101.258690 
M113.520218,117.469093 
	C112.375328,119.446793 111.146523,121.382088 110.117439,123.418320 
	C109.513924,124.612503 108.496704,126.540222 108.956429,127.127510 
	C109.838707,128.254623 111.612915,129.207062 113.064590,129.279434 
	C122.064537,129.728165 135.048019,120.686386 137.404617,112.181572 
	C137.753616,110.922089 136.543701,108.334633 135.343658,107.693878 
	C129.507492,104.577728 115.532257,111.115974 114.000000,117.000000 
	C114.000000,117.000000 114.000130,116.999855 113.520218,117.469093 
z"/>
<path fill="#123F63" opacity="1.000000" stroke="none" 
	d="
M91.243744,70.850525 
	C91.243744,70.850525 91.115425,70.450829 91.009094,69.921539 
	C89.992470,67.499794 89.543808,65.068291 88.083702,63.817867 
	C84.011192,60.330196 82.654991,55.821819 81.984932,50.869423 
	C81.984932,50.869423 82.085938,50.475212 82.401909,50.070831 
	C84.478828,45.772270 86.239769,41.878094 88.000710,37.983913 
	C88.000710,37.983913 88.006798,38.006855 88.297913,37.871895 
	C89.531509,36.356720 90.473991,34.976505 91.416473,33.596291 
	C91.416466,33.596291 91.439270,33.492683 91.780113,33.385422 
	C92.739967,32.504280 93.358971,31.730402 93.977974,30.956520 
	C93.977974,30.956520 93.998466,31.002445 94.324303,30.907005 
	C97.774567,30.207174 100.899002,29.602783 104.023430,28.998390 
	C104.023430,28.998390 103.992180,29.007381 104.109741,29.323418 
	C107.385643,34.187881 110.690514,38.643497 113.650696,43.317421 
	C115.618637,46.424660 117.094116,49.843792 118.790031,53.123318 
	C118.822487,53.529625 118.854935,53.935932 118.698944,54.931351 
	C118.001320,57.343735 117.492149,59.167007 116.982971,60.990280 
	C116.982971,60.990280 116.998222,60.998295 116.749512,61.135654 
	C115.992958,61.823200 115.485100,62.373386 114.977249,62.923573 
	C114.977249,62.923573 114.972107,62.979496 114.669418,63.121529 
	C113.726913,64.288750 113.087105,65.313934 112.447296,66.339119 
	C112.447296,66.339119 112.198196,66.298340 112.011726,66.406570 
	C111.542824,66.988403 111.260399,67.461990 110.977966,67.935585 
	C110.977966,67.935585 110.991631,67.994400 110.650940,68.102829 
	C108.513191,70.503098 106.648552,72.745667 104.933945,75.097618 
	C101.886162,79.278305 97.906166,79.053337 95.309952,74.735840 
	C94.378044,73.186081 92.623077,72.131241 91.243744,70.850525 
z"/>
<path fill="#113F64" opacity="1.000000" stroke="none" 
	d="
M95.031693,112.977951 
	C94.338951,116.315117 92.168533,117.511116 88.895432,117.532066 
	C77.451622,117.605293 66.008644,117.805641 54.564915,117.907547 
	C53.419579,117.917747 52.248600,117.677742 51.128208,117.398590 
	C46.565357,116.261734 42.948036,118.386063 42.310566,123.159447 
	C41.609467,128.409302 41.145351,133.730927 41.193401,139.015671 
	C41.207355,140.550583 43.332798,142.066299 44.505211,144.014603 
	C40.778069,145.473038 37.036034,146.507675 33.140987,147.584625 
	C31.497948,146.848282 29.429070,145.921097 27.360191,144.993927 
	C27.304413,144.805740 27.248634,144.617538 27.135000,143.958893 
	C27.077145,143.488449 27.057705,143.122879 27.057705,143.122879 
	C27.062588,142.910843 27.067471,142.698807 27.069176,141.971649 
	C27.066002,141.456512 27.040724,141.062561 27.040724,141.062561 
	C27.040724,141.062561 26.997305,141.027603 27.272251,141.025452 
	C27.547197,141.023315 28.041733,141.006195 28.337376,140.855011 
	C32.609749,139.213013 34.266247,136.074921 33.305748,132.240265 
	C32.887444,130.570267 30.477789,129.399063 28.749765,127.866028 
	C28.062229,127.494789 27.597452,127.258842 27.132675,127.022896 
	C27.127035,126.798660 27.121393,126.574432 27.116249,125.897873 
	C27.116747,125.445557 27.098116,125.211746 27.098116,125.211746 
	C27.098116,125.211746 27.087273,125.089500 27.334793,124.786751 
	C27.894480,121.228447 28.206648,117.972893 28.518816,114.717339 
	C28.518816,114.717339 28.449770,114.636368 28.869671,114.572601 
	C30.598253,113.845848 32.518749,113.526848 33.116314,112.464035 
	C36.994217,105.566910 43.710892,105.041115 50.305668,104.804291 
	C58.895294,104.495827 67.507828,104.737617 76.108398,104.874794 
	C78.704742,104.916206 81.982689,104.544601 83.687935,105.922325 
	C85.309258,107.232239 85.283371,110.580956 85.755707,112.239517 
	C88.144958,112.484154 90.571053,112.732567 92.982620,112.994591 
	C92.968086,113.008202 93.018776,113.002678 93.354340,113.001389 
	C94.137016,112.986862 94.584122,112.973625 95.031227,112.960388 
	C95.031227,112.960388 95.027855,112.980881 95.031693,112.977951 
z"/>
<path fill="#113E63" opacity="1.000000" stroke="none" 
	d="
M27.306919,145.455902 
	C29.429070,145.921097 31.497948,146.848282 33.140987,147.584625 
	C37.036034,146.507675 40.778069,145.473038 44.767818,144.208221 
	C46.073753,143.970139 47.131969,143.962204 48.690079,144.285187 
	C50.397717,145.485840 51.605469,146.355576 52.813225,147.225311 
	C53.538963,145.845917 54.264702,144.466522 54.990440,143.087128 
	C56.709457,143.083389 58.428471,143.079651 60.566765,143.482452 
	C59.717102,146.492767 58.448166,149.096527 57.099236,151.864426 
	C60.311115,151.595932 64.145615,151.275375 67.995964,150.953506 
	C67.995964,152.751892 67.995964,154.391800 67.995964,156.031708 
	C63.893154,155.983124 59.790344,155.934525 55.083057,155.775787 
	C52.732010,155.482330 50.985439,155.299011 49.452919,155.226944 
	C50.108101,155.557861 50.549236,155.777542 50.992981,156.236832 
	C50.995583,156.476440 51.000706,156.955658 51.000706,156.955658 
	C48.609318,156.657181 46.217930,156.358704 43.103035,155.957489 
	C40.183453,157.095856 37.987377,158.336975 35.791298,159.578094 
	C37.211506,160.723053 38.631714,161.868027 40.051926,163.012985 
	C40.070980,168.450531 40.090031,173.888077 39.795769,179.557831 
	C37.528519,180.439026 33.864193,181.223923 33.903175,181.714569 
	C34.126446,184.524689 35.229504,187.264893 36.033932,190.028839 
	C36.049515,190.452164 36.065098,190.875488 35.845642,191.716675 
	C35.261902,192.726639 34.913200,193.318741 34.564495,193.910828 
	C35.726036,193.588242 36.887573,193.265656 38.049110,192.943054 
	C39.484058,193.573044 40.919010,194.203033 42.676186,194.917511 
	C42.998405,195.002029 43.000225,194.991776 43.000225,194.991791 
	C47.026894,195.654999 51.053566,196.318207 55.539284,197.364883 
	C55.996914,198.511642 55.995502,199.274948 55.657585,200.096039 
	C54.223503,200.445862 53.125931,200.737885 51.735786,201.214447 
	C50.295815,204.600540 49.148415,207.802109 47.749161,211.003815 
	C47.329395,211.004135 47.161488,211.004318 46.743450,211.004486 
	C46.326561,211.004578 46.159805,211.004669 45.874191,210.753174 
	C45.514923,209.999680 45.274509,209.497772 45.020348,208.604385 
	C44.750755,206.745667 44.782337,205.120560 44.103859,203.885513 
	C43.814548,203.358902 42.041851,203.647202 40.943241,203.565186 
	C40.167606,203.550018 39.391972,203.534866 38.080086,203.429276 
	C37.340092,203.236145 37.131866,203.143494 36.919167,203.060898 
	C36.919167,203.060898 37.048683,203.068314 36.816940,203.085556 
	C35.976398,203.201614 35.367596,203.300430 34.758793,203.399231 
	C34.758793,203.399231 34.490826,203.530685 34.124741,203.217255 
	C31.536654,200.591995 29.314657,198.280167 27.092657,195.968353 
	C27.092653,195.968353 27.028868,195.969131 27.036655,195.736908 
	C27.044445,195.504684 27.029728,195.102966 27.029728,195.102966 
	C27.047396,194.917358 27.065065,194.731735 27.335365,194.263763 
	C27.587997,193.981445 28.067286,193.959641 28.200211,193.702759 
	C28.244347,191.975601 28.155561,190.505341 28.068825,188.616302 
	C27.755945,182.820999 27.441015,177.444458 27.126087,172.067902 
	C27.169065,171.611252 27.212046,171.154602 27.493549,170.130188 
	C28.147713,167.379227 28.563353,165.195999 29.175127,162.822464 
	C29.236347,161.423294 29.101433,160.214447 28.693645,158.992249 
	C28.056854,158.963394 27.692942,158.947906 27.329027,158.932419 
	C27.303898,154.594238 27.278770,150.256073 27.306919,145.455902 
M35.446117,170.946564 
	C35.893726,169.927155 36.341335,168.907730 36.788940,167.888321 
	C36.218178,167.736771 35.647415,167.585205 35.076660,167.433640 
	C35.044773,168.604660 35.012886,169.775696 35.446117,170.946564 
M40.510410,150.177048 
	C39.812912,150.218781 39.115417,150.260498 38.417919,150.302216 
	C38.595669,150.829269 38.773418,151.356339 38.951160,151.883392 
	C39.509731,151.442322 40.068302,151.001251 40.510410,150.177048 
z"/>
<path fill="#173854" opacity="1.000000" stroke="none" 
	d="
M52.028362,201.029907 
	C53.125931,200.737885 54.223503,200.445862 55.984474,200.265137 
	C61.778271,201.275421 66.908669,202.174438 72.039062,203.073456 
	C69.771812,211.943481 74.761086,217.546417 80.991127,222.420883 
	C82.293198,223.439621 84.310608,223.968552 86.007278,223.989151 
	C96.472786,224.116196 106.944527,224.169495 117.404457,223.886826 
	C119.172287,223.839050 121.271973,222.392899 122.566681,220.991013 
	C127.079315,216.104675 134.568146,215.202103 139.566727,219.266785 
	C144.531921,223.304291 145.492706,230.752045 141.696930,235.779068 
	C137.132339,241.824280 131.157715,242.623764 125.012184,237.675583 
	C128.592331,237.224655 132.040558,237.127502 135.488800,237.030350 
	C135.471909,236.500580 135.455032,235.970825 135.438156,235.441071 
	C132.940216,234.693359 130.374756,234.109894 127.975136,233.123123 
	C126.904358,232.682800 125.274750,231.241806 125.416000,230.577591 
	C126.878128,223.701859 122.640869,226.073532 119.354851,226.591934 
	C117.398376,226.900574 115.387810,226.971786 113.401772,226.969498 
	C104.439575,226.959152 95.415108,229.194794 86.531311,226.115234 
	C83.387207,225.025360 79.847031,224.750854 77.021858,223.157150 
	C73.994255,221.449234 72.525864,221.253708 72.020233,225.040894 
	C66.653931,220.694565 61.489964,216.314255 62.971954,208.195694 
	C63.490101,205.357193 61.909645,203.859756 58.918320,203.986557 
	C56.925564,204.071014 54.927170,204.022339 52.475273,203.680969 
	C52.022285,202.562439 52.025326,201.796173 52.028362,201.029907 
M136.514557,227.294022 
	C137.556793,227.957474 138.599030,228.620911 139.641281,229.284363 
	C140.003082,228.617447 140.817810,227.797668 140.652740,227.308563 
	C139.629120,224.275620 138.608032,221.119995 134.191345,220.058899 
	C134.893356,222.450363 135.428848,224.274582 135.363785,225.774673 
	C132.602188,223.734314 129.797150,223.667480 128.745590,227.168060 
	C128.323395,228.573502 130.025177,231.917404 131.369644,232.314209 
	C135.753387,233.607986 135.789398,229.900406 136.514557,227.294022 
M69.513855,209.987213 
	C69.513855,209.987213 69.481178,209.995300 69.513855,209.987213 
z"/>
<path fill="#173854" opacity="1.000000" stroke="none" 
	d="
M92.042282,233.006104 
	C95.564987,236.737045 98.922867,240.649292 102.708641,244.090851 
	C103.877892,245.153809 106.253502,245.379517 108.006294,245.219009 
	C113.262695,244.737717 118.564468,246.969086 120.847809,251.048294 
	C122.865440,254.652817 122.015526,261.931366 119.203873,265.127075 
	C115.775490,269.023743 110.964027,270.120758 105.599113,268.229004 
	C100.968079,266.596008 98.111275,261.271210 98.430794,255.943710 
	C98.542610,254.079498 97.886261,251.622208 96.650726,250.314194 
	C89.364571,242.600616 81.804199,235.146057 74.509590,227.392502 
	C76.223747,228.077789 78.219429,228.626007 79.223061,229.934906 
	C82.761581,234.549774 86.914116,235.547684 92.042282,233.006104 
M109.861481,253.311447 
	C105.920937,256.368408 105.398323,259.537323 108.780472,260.534546 
	C110.141747,260.935913 112.864471,260.287781 113.382866,259.292145 
	C114.780441,256.607971 113.826721,254.206863 109.861481,253.311447 
z"/>
<path fill="#133E63" opacity="1.000000" stroke="none" 
	d="
M92.405319,232.985321 
	C86.914116,235.547684 82.761581,234.549774 79.223061,229.934906 
	C78.219429,228.626007 76.223747,228.077789 74.338501,227.109131 
	C73.993988,227.037552 73.976112,227.022980 73.836891,226.836853 
	C73.500923,226.421051 73.286819,226.208923 73.055374,226.014297 
	C72.759979,225.875534 72.503288,225.684708 72.152771,225.241364 
	C72.525864,221.253708 73.994255,221.449234 77.021858,223.157150 
	C79.847031,224.750854 83.387207,225.025360 86.531311,226.115234 
	C95.415108,229.194794 104.439575,226.959152 113.401772,226.969498 
	C115.387810,226.971786 117.398376,226.900574 119.354851,226.591934 
	C122.640869,226.073532 126.878128,223.701859 125.416000,230.577591 
	C125.274750,231.241806 126.904358,232.682800 127.975136,233.123123 
	C130.374756,234.109894 132.940216,234.693359 135.438156,235.441071 
	C135.455032,235.970825 135.471909,236.500580 135.488800,237.030350 
	C132.040558,237.127502 128.592331,237.224655 124.818565,237.372467 
	C124.493034,237.423141 124.512619,237.367874 124.487991,237.037140 
	C123.277428,235.480164 122.091492,234.253937 120.905556,233.027710 
	C120.480164,232.983521 120.054764,232.939346 119.100739,232.688263 
	C117.361328,232.593246 116.150543,232.705154 114.939766,232.817078 
	C112.899216,232.838913 110.858658,232.860748 108.009384,232.729767 
	C103.116112,232.663925 99.031563,232.750900 94.947006,232.837891 
	C94.220795,232.880096 93.494576,232.922302 92.405319,232.985321 
z"/>
<path fill="#173854" opacity="1.000000" stroke="none" 
	d="
M64.551407,234.390732 
	C67.050720,236.810043 69.553757,239.225494 72.048462,241.649536 
	C75.783531,245.278793 78.966805,249.045609 85.111969,249.586227 
	C91.310799,250.131577 95.326508,258.197906 93.688438,264.213898 
	C91.899689,270.783356 85.622192,274.068878 78.392052,272.583496 
	C73.318794,271.541168 67.974747,264.165466 71.059998,257.547089 
	C72.101051,258.850708 73.474274,260.474030 73.165504,261.659088 
	C72.023842,266.040924 74.667709,267.841858 77.808968,269.222382 
	C81.896988,271.019012 87.660431,269.600006 90.017059,266.262817 
	C92.313667,263.010651 92.701241,259.476105 90.224945,256.107605 
	C86.011383,250.375931 77.395447,249.433868 72.023895,254.013428 
	C70.737823,252.559265 69.451759,251.105103 68.129166,249.273163 
	C68.092651,248.895401 68.209541,248.766998 68.559753,248.792999 
	C70.197128,248.349380 71.484299,247.879791 72.771469,247.410202 
	C72.153603,246.172028 71.705292,244.805740 70.885262,243.720291 
	C68.654396,240.767365 66.266266,237.933243 64.094208,234.887634 
	C64.247940,234.723221 64.551414,234.390732 64.551407,234.390732 
z"/>
<path fill="#143753" opacity="1.000000" stroke="none" 
	d="
M92.997147,112.980980 
	C90.571053,112.732567 88.144958,112.484154 85.755707,112.239517 
	C85.283371,110.580956 85.309258,107.232239 83.687935,105.922325 
	C81.982689,104.544601 78.704742,104.916206 76.108398,104.874794 
	C67.507828,104.737617 58.895294,104.495827 50.305668,104.804291 
	C43.710892,105.041115 36.994217,105.566910 33.116314,112.464035 
	C32.518749,113.526848 30.598253,113.845848 28.910154,114.538071 
	C31.460802,105.661705 38.613159,102.580643 46.964916,102.218224 
	C57.707355,101.752068 68.485497,102.026611 79.247177,102.114700 
	C86.562943,102.174576 90.723137,107.175659 94.847321,112.682663 
	C94.584122,112.973625 94.137016,112.986862 93.346230,112.998734 
	C93.002548,112.997353 92.997147,112.980980 92.997147,112.980980 
z"/>
<path fill="#113C5E" opacity="1.000000" stroke="none" 
	d="
M71.930038,254.317505 
	C77.395447,249.433868 86.011383,250.375931 90.224945,256.107605 
	C92.701241,259.476105 92.313667,263.010651 90.017059,266.262817 
	C87.660431,269.600006 81.896988,271.019012 77.808968,269.222382 
	C74.667709,267.841858 72.023842,266.040924 73.165504,261.659088 
	C73.474274,260.474030 72.101051,258.850708 71.297928,257.229767 
	C71.342728,256.227844 71.589455,255.424713 71.930038,254.317505 
M80.001816,264.997345 
	C80.001816,264.997345 79.990479,265.050842 80.420692,265.456757 
	C82.336006,265.199707 84.502625,265.379211 86.052353,264.487061 
	C86.745964,264.087799 86.202316,261.539215 86.076714,259.532135 
	C86.076714,259.532135 85.968155,259.088226 85.713203,258.448090 
	C84.041237,255.554016 81.513313,254.696106 78.701363,256.294861 
	C76.379341,257.615082 75.888580,259.794556 77.942024,262.491394 
	C77.942024,262.491394 78.013863,262.940765 78.320152,263.425751 
	C78.863129,263.954437 79.406105,264.483124 80.001816,264.997345 
z"/>
<path fill="#173855" opacity="1.000000" stroke="none" 
	d="
M108.774864,78.244118 
	C108.254173,81.577599 107.334579,85.052109 106.625328,88.569031 
	C106.075584,91.295029 105.788757,94.074051 105.385063,96.829498 
	C105.749779,97.254730 106.114487,97.679962 106.479195,98.105194 
	C103.759949,98.669662 101.043976,99.595749 98.319839,99.620430 
	C97.231949,99.630287 95.436440,97.809250 95.147408,96.549843 
	C93.878113,91.019165 93.041931,85.389099 91.996216,79.444046 
	C94.706589,84.545113 97.469482,89.997185 100.353340,95.687950 
	C103.014221,90.019157 105.740387,84.211281 108.774864,78.244118 
z"/>
<path fill="#173854" opacity="1.000000" stroke="none" 
	d="
M45.034096,208.995880 
	C45.274509,209.497772 45.514923,209.999680 45.873508,211.002411 
	C45.991680,211.503265 45.991959,212.001938 45.989883,212.430878 
	C45.987591,214.578278 45.987373,216.296753 45.865204,218.263306 
	C45.504406,219.010010 45.265560,219.508621 45.122177,220.313873 
	C45.804489,221.755112 46.391342,222.889709 47.107246,224.324097 
	C48.487751,226.084137 49.739201,227.544388 51.323196,229.010345 
	C52.098633,229.024338 52.541523,229.032623 53.069054,229.382172 
	C54.309448,231.474335 55.329071,233.336029 56.646770,234.955124 
	C60.436489,239.611603 64.346687,244.170044 68.209541,248.766998 
	C68.209541,248.766998 68.092651,248.895401 68.034149,248.959534 
	C61.884052,243.071518 56.188438,236.629852 49.595840,231.297058 
	C42.155445,225.278534 42.371334,217.854080 44.049088,209.404175 
	C44.654949,209.005112 44.844524,209.000488 45.034096,208.995880 
z"/>
<path fill="#123E63" opacity="1.000000" stroke="none" 
	d="
M72.432632,203.041245 
	C66.908669,202.174438 61.778271,201.275421 56.320984,200.207321 
	C55.995502,199.274948 55.996914,198.511642 55.998550,197.366852 
	C62.433372,197.025574 68.867966,197.065765 75.892891,197.212631 
	C77.340820,197.895432 78.198418,198.471573 79.056015,199.047714 
	C79.039391,199.751663 79.022766,200.455597 78.993767,201.511398 
	C76.929657,202.245178 74.877930,202.627106 72.432632,203.041245 
z"/>
<path fill="#113C5E" opacity="1.000000" stroke="none" 
	d="
M50.990654,229.004639 
	C49.739201,227.544388 48.487751,226.084137 47.255569,224.089539 
	C48.670048,221.013626 47.100983,220.350372 45.026711,220.007233 
	C45.265560,219.508621 45.504406,219.010010 46.106361,217.999435 
	C46.979984,215.326218 47.490501,213.164932 48.001019,211.003662 
	C49.148415,207.802109 50.295815,204.600540 51.735786,201.214447 
	C52.025326,201.796173 52.022285,202.562439 52.020817,203.712646 
	C51.961643,207.453064 51.900906,210.809509 51.685875,214.911316 
	C51.621895,217.452820 51.712204,219.248947 51.802513,221.045090 
	C52.109150,221.517868 52.415783,221.990662 52.865017,223.109467 
	C53.013149,224.830841 53.018684,225.906204 53.015030,226.988892 
	C53.005840,226.996216 52.993279,227.009949 52.766083,227.180206 
	C52.022812,227.901871 51.506733,228.453247 50.990654,229.004639 
z"/>
<path fill="#173855" opacity="1.000000" stroke="none" 
	d="
M83.857986,66.705849 
	C82.376381,65.942490 80.645325,65.003868 79.121361,63.802544 
	C71.907707,58.116074 64.421585,53.372025 54.521999,55.818768 
	C53.774403,59.023743 53.033710,62.199127 52.156151,65.703255 
	C51.770073,62.790504 51.060276,59.484756 51.499069,56.339237 
	C51.673820,55.086555 54.325993,53.385635 55.957947,53.257313 
	C67.633324,52.339264 76.531250,57.636906 83.857986,66.705849 
z"/>
<path fill="#1B354E" opacity="1.000000" stroke="none" 
	d="
M91.343262,71.182678 
	C92.623077,72.131241 94.378044,73.186081 95.309952,74.735840 
	C97.906166,79.053337 101.886162,79.278305 104.933945,75.097618 
	C106.648552,72.745667 108.513191,70.503098 110.623077,68.091179 
	C107.597191,74.507866 104.258461,81.044617 100.488670,88.425362 
	C97.328674,82.518021 94.385727,77.016426 91.343262,71.182678 
z"/>
<path fill="#173855" opacity="1.000000" stroke="none" 
	d="
M132.339020,90.972473 
	C131.945648,87.488480 133.145950,85.445625 136.504471,83.187820 
	C139.944656,80.875114 141.650925,75.932312 144.004822,72.072823 
	C145.530487,69.571320 146.856506,66.948059 148.519653,64.161079 
	C148.136429,73.295677 143.500885,80.629204 136.710236,87.122726 
	C136.115784,86.997543 135.914383,86.823860 135.712982,86.650177 
	C135.617325,86.746201 135.521667,86.842216 135.426010,86.938240 
	C135.770889,87.141838 136.115753,87.345436 136.460617,87.549026 
	C135.195206,88.674782 133.929794,89.800545 132.339020,90.972473 
z"/>
<path fill="#173855" opacity="1.000000" stroke="none" 
	d="
M52.273815,68.292374 
	C53.760262,69.275322 55.598015,70.402573 56.687538,72.030579 
	C59.573967,76.343597 62.132915,80.875534 64.830482,85.315308 
	C65.841225,86.978844 66.874916,88.628448 67.956657,90.636993 
	C59.354290,85.955956 55.221733,77.731438 52.273815,68.292374 
z"/>
<path fill="#173855" opacity="1.000000" stroke="none" 
	d="
M106.303101,105.890419 
	C105.682808,102.792038 107.168388,100.949966 110.260254,99.752678 
	C117.316376,97.020271 124.257416,93.990654 131.631378,91.048019 
	C127.726234,93.360100 123.389946,95.628090 119.156235,98.073631 
	C114.912674,100.524864 110.771477,103.153305 106.303101,105.890419 
z"/>
<path fill="#173855" opacity="1.000000" stroke="none" 
	d="
M142.611221,53.258816 
	C142.399857,54.064613 141.888519,55.195625 141.078354,55.482403 
	C134.600891,57.775257 128.066879,59.908371 121.250771,62.043442 
	C126.845695,56.218788 133.592545,52.496128 142.611221,53.258816 
z"/>
<path fill="#1B354E" opacity="1.000000" stroke="none" 
	d="
M118.827682,52.722980 
	C117.094116,49.843792 115.618637,46.424660 113.650696,43.317421 
	C110.690514,38.643497 107.385643,34.187881 104.114197,29.307747 
	C112.471474,34.519917 116.989037,42.580467 118.827682,52.722980 
z"/>
<path fill="#113E63" opacity="1.000000" stroke="none" 
	d="
M28.972527,128.001328 
	C30.477789,129.399063 32.887444,130.570267 33.305748,132.240265 
	C34.266247,136.074921 32.609749,139.213013 28.204287,140.686996 
	C27.598862,140.447739 27.415516,140.230942 27.225517,140.019775 
	C27.216839,139.560852 27.208160,139.101929 27.435852,138.094788 
	C29.668867,135.240875 30.287893,133.020554 27.268082,131.025772 
	C27.259571,130.581528 27.251059,130.137283 27.488827,129.244980 
	C28.147581,128.531723 28.560053,128.266525 28.972527,128.001328 
z"/>
<path fill="#173855" opacity="1.000000" stroke="none" 
	d="
M70.173508,92.279884 
	C77.661652,91.530525 82.972984,96.404831 88.860092,100.646805 
	C82.808327,98.145920 76.594322,95.348907 70.173508,92.279884 
z"/>
<path fill="#143753" opacity="1.000000" stroke="none" 
	d="
M28.067286,193.959641 
	C28.067286,193.959641 27.587997,193.981445 27.348129,193.984375 
	C26.972860,186.914734 26.837461,179.842163 26.914076,172.418747 
	C27.441015,177.444458 27.755945,182.820999 28.060001,189.025726 
	C28.055178,191.222473 28.061232,192.591064 28.067286,193.959641 
z"/>
<path fill="#143753" opacity="1.000000" stroke="none" 
	d="
M27.071754,196.308929 
	C29.314657,198.280167 31.536654,200.591995 33.975571,203.221939 
	C26.828310,204.085297 26.702705,203.964111 27.071754,196.308929 
z"/>
<path fill="#1B354E" opacity="1.000000" stroke="none" 
	d="
M81.719040,51.183338 
	C82.654991,55.821819 84.011192,60.330196 88.083702,63.817867 
	C89.543808,65.068291 89.992470,67.499794 90.957138,69.718170 
	C88.084351,66.901039 84.554695,64.109444 82.443550,60.490376 
	C81.055023,58.110073 81.712105,54.536484 81.719040,51.183338 
z"/>
<path fill="#173855" opacity="1.000000" stroke="none" 
	d="
M91.885315,78.689117 
	C84.890175,78.783951 85.805717,73.224129 85.033386,68.357132 
	C87.297928,71.399437 89.581161,74.862358 91.885315,78.689117 
z"/>
<path fill="#173855" opacity="1.000000" stroke="none" 
	d="
M149.080017,61.699135 
	C147.950821,59.359268 147.050308,56.692280 146.050705,53.670181 
	C152.400742,53.779842 149.362625,58.197632 149.080017,61.699135 
z"/>
<path fill="#173854" opacity="1.000000" stroke="none" 
	d="
M53.024216,226.981583 
	C53.018684,225.906204 53.013149,224.830841 53.009735,223.351990 
	C56.088482,225.937759 59.165112,228.927032 62.282700,232.321350 
	C62.323658,232.726410 61.973324,233.029221 61.663044,232.891754 
	C58.576584,230.830032 55.800400,228.905807 53.024216,226.981583 
z"/>
<path fill="#1B354E" opacity="1.000000" stroke="none" 
	d="
M87.711716,38.167969 
	C86.239769,41.878094 84.478828,45.772270 82.462959,49.876728 
	C83.946266,46.175350 85.684502,42.263687 87.711716,38.167969 
z"/>
<path fill="#143753" opacity="1.000000" stroke="none" 
	d="
M28.978992,163.012787 
	C28.563353,165.195999 28.147713,167.379227 27.548809,169.790649 
	C27.297113,166.572739 27.228682,163.126633 27.244638,159.306458 
	C27.692942,158.947906 28.056854,158.963394 28.695272,159.392609 
	C28.972849,160.875153 28.975922,161.943970 28.978992,163.012787 
z"/>
<path fill="#1B354E" opacity="1.000000" stroke="none" 
	d="
M103.936707,28.684477 
	C100.899002,29.602783 97.774567,30.207174 94.302513,30.894018 
	C97.959251,25.057945 99.550201,24.638964 103.936707,28.684477 
z"/>
<path fill="#173855" opacity="1.000000" stroke="none" 
	d="
M115.753876,67.258919 
	C114.012169,70.330917 111.975494,73.557343 109.655243,76.932816 
	C111.400749,73.859016 113.429832,70.636185 115.753876,67.258919 
z"/>
<path fill="#143753" opacity="1.000000" stroke="none" 
	d="
M28.258343,114.982574 
	C28.206648,117.972893 27.894480,121.228447 27.370140,124.736588 
	C27.437935,121.742058 27.717901,118.494942 28.258343,114.982574 
z"/>
<path fill="#143753" opacity="1.000000" stroke="none" 
	d="
M27.128685,131.286713 
	C30.287893,133.020554 29.668867,135.240875 27.441082,137.750549 
	C27.136391,135.818909 27.062840,133.683273 27.128685,131.286713 
z"/>
<path fill="#173855" opacity="1.000000" stroke="none" 
	d="
M45.020348,208.604385 
	C44.844524,209.000488 44.654949,209.005112 44.180984,209.016678 
	C43.114151,207.342499 42.331707,205.661377 41.246254,203.772736 
	C42.041851,203.647202 43.814548,203.358902 44.103859,203.885513 
	C44.782337,205.120560 44.750755,206.745667 45.020348,208.604385 
z"/>
<path fill="#173854" opacity="1.000000" stroke="none" 
	d="
M95.411407,232.896210 
	C99.031563,232.750900 103.116112,232.663925 107.572830,232.690552 
	C103.921921,232.854279 99.898865,232.904404 95.411407,232.896210 
z"/>
<path fill="#1B354E" opacity="1.000000" stroke="none" 
	d="
M117.310562,60.895889 
	C117.492149,59.167007 118.001320,57.343735 118.716583,55.236702 
	C118.494492,56.902462 118.066322,58.851982 117.310562,60.895889 
z"/>
<path fill="#173854" opacity="1.000000" stroke="none" 
	d="
M120.993286,233.348251 
	C122.091492,234.253937 123.277428,235.480164 124.515900,237.048019 
	C123.405952,236.149368 122.243484,234.909073 120.993286,233.348251 
z"/>
<path fill="#1B354E" opacity="1.000000" stroke="none" 
	d="
M91.154236,33.763908 
	C90.473991,34.976505 89.531509,36.356720 88.286041,37.870140 
	C88.952705,36.646072 89.922356,35.288795 91.154236,33.763908 
z"/>
<path fill="#173855" opacity="1.000000" stroke="none" 
	d="
M119.713287,63.100830 
	C118.894562,64.270889 117.799721,65.601837 116.401230,66.988556 
	C117.210777,65.783447 118.323975,64.522583 119.713287,63.100830 
z"/>
<path fill="#173854" opacity="1.000000" stroke="none" 
	d="
M51.850327,220.619644 
	C51.712204,219.248947 51.621895,217.452820 51.646393,215.371765 
	C51.806843,216.789291 51.852489,218.491745 51.850327,220.619644 
z"/>
<path fill="#173854" opacity="1.000000" stroke="none" 
	d="
M115.343826,232.868256 
	C116.150543,232.705154 117.361328,232.593246 118.783585,232.640259 
	C117.912666,232.839264 116.830276,232.879364 115.343826,232.868256 
z"/>
<path fill="#1B354E" opacity="1.000000" stroke="none" 
	d="
M112.715958,66.189316 
	C113.087105,65.313934 113.726913,64.288750 114.641830,63.116318 
	C114.272827,63.992558 113.628723,65.016037 112.715958,66.189316 
z"/>
<path fill="#1B354E" opacity="1.000000" stroke="none" 
	d="
M93.679657,31.049368 
	C93.358971,31.730402 92.739967,32.504280 91.832794,33.391609 
	C92.156868,32.717445 92.769104,31.929829 93.679657,31.049368 
z"/>
<path fill="#143753" opacity="1.000000" stroke="none" 
	d="
M28.749767,127.866028 
	C28.560053,128.266525 28.147581,128.531723 27.518581,128.912994 
	C27.171104,128.481354 27.040152,127.933647 27.020935,127.204422 
	C27.597452,127.258842 28.062229,127.494789 28.749767,127.866028 
z"/>
<path fill="#173855" opacity="1.000000" stroke="none" 
	d="
M104.293076,110.811646 
	C104.207718,110.059608 104.362640,109.076797 104.703613,108.020805 
	C104.770889,108.825371 104.652122,109.703117 104.293076,110.811646 
z"/>
<path fill="#1B354E" opacity="1.000000" stroke="none" 
	d="
M115.270737,62.853043 
	C115.485100,62.373386 115.992958,61.823200 116.745865,61.129059 
	C116.515358,61.584240 116.039787,62.183380 115.270737,62.853043 
z"/>
<path fill="#173854" opacity="1.000000" stroke="none" 
	d="
M62.500099,232.576508 
	C63.193508,232.936020 63.710480,233.445419 64.389435,234.172775 
	C64.551414,234.390732 64.247940,234.723221 63.873543,234.710083 
	C62.990540,234.141037 62.481930,233.585129 61.973320,233.029221 
	C61.973324,233.029221 62.323658,232.726410 62.500099,232.576508 
z"/>
<path fill="#173855" opacity="1.000000" stroke="none" 
	d="
M35.143761,203.444672 
	C35.367596,203.300430 35.976398,203.201614 36.813225,203.150314 
	C36.537075,203.295273 36.032902,203.392700 35.143761,203.444672 
z"/>
<path fill="#1B354E" opacity="1.000000" stroke="none" 
	d="
M111.229683,67.782707 
	C111.260399,67.461990 111.542824,66.988403 111.978470,66.284828 
	C111.914925,66.579842 111.698158,67.104836 111.229683,67.782707 
z"/>
<path fill="#173854" opacity="1.000000" stroke="none" 
	d="
M73.157059,226.223129 
	C73.286819,226.208923 73.500923,226.421051 73.838364,226.828308 
	C73.683853,226.883698 73.443748,226.692398 73.157059,226.223129 
z"/>
<path fill="#173855" opacity="1.000000" stroke="none" 
	d="
M103.295601,113.981216 
	C103.231064,113.824158 103.391426,113.596901 103.676910,113.203278 
	C103.834282,113.368721 103.740433,113.660095 103.295601,113.981216 
z"/>
<path fill="#173855" opacity="1.000000" stroke="none" 
	d="
M103.712303,114.879677 
	C103.559776,114.895668 103.520882,114.669586 103.605255,114.315033 
	C103.643936,114.199753 103.741348,114.650795 103.712303,114.879677 
z"/>
<path fill="#143753" opacity="1.000000" stroke="none" 
	d="
M26.916319,195.180481 
	C27.029728,195.102966 27.044445,195.504684 27.040955,195.705292 
	C26.731039,195.754837 26.652853,195.538864 26.916319,195.180481 
z"/>
<path fill="#143753" opacity="1.000000" stroke="none" 
	d="
M27.013042,125.249466 
	C27.098116,125.211746 27.116747,125.445557 27.109165,125.561493 
	C27.101582,125.677437 26.886736,125.536095 26.886736,125.536095 
	C26.886736,125.536095 26.927967,125.287193 27.013042,125.249466 
z"/>
<path fill="#143753" opacity="1.000000" stroke="none" 
	d="
M37.024689,203.215149 
	C37.131866,203.143494 37.340092,203.236145 37.692230,203.421906 
	C37.840622,203.504959 37.468582,203.525452 37.468582,203.525452 
	C37.468582,203.525452 37.130207,203.369400 37.024689,203.215149 
z"/>
<path fill="#143753" opacity="1.000000" stroke="none" 
	d="
M27.156954,140.267944 
	C27.415516,140.230942 27.598862,140.447739 27.908642,140.838165 
	C28.041733,141.006195 27.547197,141.023315 27.300056,141.026550 
	C27.064739,140.858566 27.076565,140.687332 27.156954,140.267944 
z"/>
<path fill="#143753" opacity="1.000000" stroke="none" 
	d="
M26.938812,141.144867 
	C27.040724,141.062561 27.066002,141.456512 27.064823,141.653534 
	C26.777632,141.708618 26.702049,141.500824 26.938812,141.144867 
z"/>
<path fill="#143753" opacity="1.000000" stroke="none" 
	d="
M26.959784,143.195496 
	C27.057705,143.122879 27.077145,143.488449 27.072323,143.671234 
	C26.803871,143.716965 26.735325,143.521667 26.959784,143.195496 
z"/>
<path fill="#173855" opacity="1.000000" stroke="none" 
	d="
M88.963760,91.989349 
	C88.966415,91.968666 88.961098,92.010033 88.963760,91.989349 
z"/>
<path fill="#000000" opacity="1.000000" stroke="none" 
	d="
M43.003712,195.000641 
	C43.296658,187.869904 43.770443,180.742203 43.834160,173.610840 
	C43.977982,157.513916 42.660000,159.042694 58.282768,158.946716 
	C63.572006,158.914215 68.939323,158.835266 74.123085,157.930374 
	C79.450043,157.000488 83.795433,148.017197 81.453468,143.258896 
	C80.878220,142.090103 78.545464,141.222565 76.999329,141.188583 
	C68.176369,140.994675 59.339966,140.884842 50.522495,141.178177 
	C45.687744,141.339020 43.677792,139.981903 43.781738,134.767319 
	C44.107174,118.441078 42.532898,120.000214 58.631626,120.000687 
	C69.290245,120.000992 79.951225,120.082558 90.606285,119.876320 
	C94.684456,119.797386 96.174309,121.239708 96.140747,125.361107 
	C95.999702,142.681244 96.208244,160.004211 96.067322,177.324356 
	C95.989243,186.920227 89.374588,193.647751 79.774796,194.027451 
	C67.824966,194.500092 55.864384,194.700745 43.454334,195.005310 
	C43.000225,194.991776 42.998405,195.002029 43.003712,195.000641 
z"/>
<path fill="#124064" opacity="1.000000" stroke="none" 
	d="
M113.999840,117.000145 
	C115.532257,111.115974 129.507492,104.577728 135.343658,107.693878 
	C136.543701,108.334633 137.753616,110.922089 137.404617,112.181572 
	C135.048019,120.686386 122.064537,129.728165 113.064590,129.279434 
	C111.612915,129.207062 109.838707,128.254623 108.956429,127.127510 
	C108.496704,126.540222 109.513924,124.612503 110.117439,123.418320 
	C111.146523,121.382088 112.375328,119.446793 113.772232,117.249138 
	C114.024239,117.029182 113.999840,117.000145 113.999840,117.000145 
z"/>
<path fill="#113F64" opacity="1.000000" stroke="none" 
	d="
M68.378723,155.995972 
	C67.995964,154.391800 67.995964,152.751892 67.995964,150.953506 
	C64.145615,151.275375 60.311115,151.595932 57.099236,151.864426 
	C58.448166,149.096527 59.717102,146.492767 60.996376,143.488220 
	C64.822464,143.080505 68.690804,142.694366 72.433609,143.213440 
	C74.567764,143.509415 78.153450,145.254257 78.172745,146.395889 
	C78.212509,148.748993 76.765930,151.585464 75.045395,153.368683 
	C73.603882,154.862717 70.904114,155.142700 68.378723,155.995972 
z"/>
<path fill="#134164" opacity="1.000000" stroke="none" 
	d="
M79.454803,199.036804 
	C78.198418,198.471573 77.340820,197.895432 76.225479,197.147720 
	C82.088028,195.564026 88.208336,194.151917 94.936859,192.599472 
	C91.589111,199.444794 85.509033,198.759750 79.454803,199.036804 
z"/>
<path fill="#113F64" opacity="1.000000" stroke="none" 
	d="
M36.327610,189.917419 
	C35.229504,187.264893 34.126446,184.524689 33.903175,181.714569 
	C33.864193,181.223923 37.528519,180.439026 39.750088,179.895203 
	C40.582130,180.820511 41.146538,181.640625 41.546036,182.691727 
	C35.744492,183.075439 38.011879,186.295517 39.013256,189.024292 
	C38.215935,189.284866 37.418613,189.545441 36.327610,189.917419 
z"/>
<path fill="#113F64" opacity="1.000000" stroke="none" 
	d="
M40.219265,162.715759 
	C38.631714,161.868027 37.211506,160.723053 35.791298,159.578094 
	C37.987377,158.336975 40.183453,157.095856 42.697853,155.934128 
	C42.139652,158.148514 41.263126,160.283524 40.219265,162.715759 
z"/>
<path fill="#113F64" opacity="1.000000" stroke="none" 
	d="
M54.603020,143.083984 
	C54.264702,144.466522 53.538963,145.845917 52.813225,147.225311 
	C51.605469,146.355576 50.397717,145.485840 49.087395,144.284790 
	C50.728416,143.662613 52.472008,143.371735 54.603020,143.083984 
z"/>
<path fill="#113E63" opacity="1.000000" stroke="none" 
	d="
M39.305717,188.844513 
	C38.011879,186.295517 35.744492,183.075439 41.681118,182.959015 
	C41.186802,184.885117 40.392490,186.774933 39.305717,188.844513 
z"/>
<path fill="#113F64" opacity="1.000000" stroke="none" 
	d="
M51.277748,157.030670 
	C51.000706,156.955658 50.995583,156.476440 50.774063,156.118225 
	C50.114651,155.545227 49.676762,155.330460 49.238876,155.115692 
	C50.985439,155.299011 52.732010,155.482330 54.750320,155.841400 
	C53.866306,156.380005 52.710548,156.742844 51.277748,157.030670 
z"/>
<path fill="#113F64" opacity="1.000000" stroke="none" 
	d="
M37.806328,192.811676 
	C36.887573,193.265656 35.726036,193.588242 34.564495,193.910828 
	C34.913200,193.318741 35.261902,192.726639 35.851105,192.034363 
	C36.582253,192.182861 37.072899,192.431564 37.806328,192.811676 
z"/>
<path fill="#173855" opacity="1.000000" stroke="none" 
	d="
M93.010666,113.000015 
	C93.018776,113.002678 92.968086,113.008202 92.982620,112.994591 
	C92.997147,112.980980 93.002548,112.997353 93.010666,113.000015 
z"/>
<path fill="#113F64" opacity="1.000000" stroke="none" 
	d="
M35.213558,170.946640 
	C35.012886,169.775696 35.044773,168.604660 35.076660,167.433640 
	C35.647415,167.585205 36.218178,167.736771 36.788940,167.888321 
	C36.341335,168.907730 35.893726,169.927155 35.213558,170.946640 
z"/>
<path fill="#113F64" opacity="1.000000" stroke="none" 
	d="
M40.568642,150.368622 
	C40.068302,151.001251 39.509731,151.442322 38.951164,151.883392 
	C38.773418,151.356339 38.595669,150.829269 38.417919,150.302216 
	C39.115417,150.260498 39.812912,150.218781 40.568642,150.368622 
z"/>
<path fill="#123C60" opacity="1.000000" stroke="none" 
	d="
M47.749161,211.003815 
	C47.490501,213.164932 46.979984,215.326218 46.228310,217.751343 
	C45.987373,216.296753 45.987591,214.578278 46.161652,212.269180 
	C46.561077,211.459946 46.780441,211.235260 46.993584,211.004501 
	C47.161488,211.004318 47.329395,211.004135 47.749161,211.003815 
z"/>
<path fill="#113F64" opacity="1.000000" stroke="none" 
	d="
M29.175127,162.822464 
	C28.975922,161.943970 28.972849,160.875153 28.968147,159.405975 
	C29.101433,160.214447 29.236347,161.423294 29.175127,162.822464 
z"/>
<path fill="#113F64" opacity="1.000000" stroke="none" 
	d="
M28.200211,193.702759 
	C28.061232,192.591064 28.055178,191.222473 28.057949,189.444489 
	C28.155561,190.505341 28.244347,191.975601 28.200211,193.702759 
z"/>
<path fill="#173855" opacity="1.000000" stroke="none" 
	d="
M49.452919,155.226929 
	C49.676762,155.330460 50.114651,155.545227 50.771458,155.878601 
	C50.549236,155.777542 50.108101,155.557861 49.452919,155.226929 
z"/>
<path fill="#113C5E" opacity="1.000000" stroke="none" 
	d="
M46.743450,211.004486 
	C46.780441,211.235260 46.561077,211.459946 46.163727,211.840240 
	C45.991959,212.001938 45.991680,211.503265 45.992363,211.254028 
	C46.159805,211.004669 46.326561,211.004578 46.743450,211.004486 
z"/>
<path fill="#000000" opacity="1.000000" stroke="none" 
	d="
M136.178406,226.962570 
	C135.789398,229.900406 135.753387,233.607986 131.369644,232.314209 
	C130.025177,231.917404 128.323395,228.573502 128.745590,227.168060 
	C129.797150,223.667480 132.602188,223.734314 135.713821,226.153564 
	C136.063858,226.532440 136.178406,226.962570 136.178406,226.962570 
z"/>
<path fill="#154063" opacity="1.000000" stroke="none" 
	d="
M136.346481,227.128296 
	C136.178406,226.962570 136.063858,226.532440 136.014099,226.315613 
	C135.428848,224.274582 134.893356,222.450363 134.191345,220.058899 
	C138.608032,221.119995 139.629120,224.275620 140.652740,227.308563 
	C140.817810,227.797668 140.003082,228.617447 139.641266,229.284363 
	C138.599030,228.620911 137.556793,227.957474 136.346481,227.128296 
z"/>
<path fill="#0D395F" opacity="1.000000" stroke="none" 
	d="
M69.497513,209.991257 
	C69.481178,209.995300 69.513855,209.987213 69.497513,209.991257 
z"/>
<path fill="#000000" opacity="1.000000" stroke="none" 
	d="
M110.224075,253.282990 
	C113.826721,254.206863 114.780441,256.607971 113.382866,259.292145 
	C112.864471,260.287781 110.141747,260.935913 108.780472,260.534546 
	C105.398323,259.537323 105.920937,256.368408 110.224075,253.282990 
z"/>
<path fill="#113C5E" opacity="1.000000" stroke="none" 
	d="
M61.663040,232.891754 
	C62.481930,233.585129 62.990540,234.141037 63.719810,234.874481 
	C66.266266,237.933243 68.654396,240.767365 70.885262,243.720291 
	C71.705292,244.805740 72.153603,246.172028 72.771469,247.410202 
	C71.484299,247.879791 70.197128,248.349380 68.559753,248.792999 
	C64.346687,244.170044 60.436489,239.611603 56.646770,234.955124 
	C55.329071,233.336029 54.309448,231.474335 53.071594,229.043060 
	C52.990757,227.911758 52.992016,227.460861 52.993279,227.009949 
	C52.993279,227.009949 53.005840,226.996216 53.015030,226.988892 
	C55.800400,228.905807 58.576584,230.830032 61.663040,232.891754 
z"/>
<path fill="#000000" opacity="1.000000" stroke="none" 
	d="
M85.968155,259.088226 
	C85.968155,259.088226 86.076714,259.532135 86.079826,260.125305 
	C85.538155,264.252319 83.196434,265.259247 79.990479,265.050842 
	C79.990479,265.050842 80.001816,264.997345 79.837097,264.754303 
	C79.119537,263.987762 78.566704,263.464264 78.013863,262.940765 
	C78.013863,262.940765 77.942024,262.491394 77.966721,261.905701 
	C79.341896,255.899612 82.545708,257.103210 85.968155,259.088226 
z"/>
<path fill="#173854" opacity="1.000000" stroke="none" 
	d="
M85.840683,258.768158 
	C82.545708,257.103210 79.341896,255.899612 77.922295,261.682556 
	C75.888580,259.794556 76.379341,257.615082 78.701363,256.294861 
	C81.513313,254.696106 84.041237,255.554016 85.840683,258.768158 
z"/>
<path fill="#173854" opacity="1.000000" stroke="none" 
	d="
M80.205582,265.253784 
	C83.196434,265.259247 85.538155,264.252319 86.151543,260.342224 
	C86.202316,261.539215 86.745964,264.087799 86.052353,264.487061 
	C84.502625,265.379211 82.336006,265.199707 80.205582,265.253784 
z"/>
<path fill="#173854" opacity="1.000000" stroke="none" 
	d="
M78.167007,263.183258 
	C78.566704,263.464264 79.119537,263.987762 79.810730,264.761536 
	C79.406105,264.483124 78.863129,263.954437 78.167007,263.183258 
z"/>
<path fill="#123C60" opacity="1.000000" stroke="none" 
	d="
M45.122169,220.313873 
	C47.100983,220.350372 48.670048,221.013626 47.126518,223.789749 
	C46.391342,222.889709 45.804489,221.755112 45.122169,220.313873 
z"/>
<path fill="#123C60" opacity="1.000000" stroke="none" 
	d="
M52.766083,227.180206 
	C52.992016,227.460861 52.990757,227.911758 52.986958,228.701782 
	C52.541523,229.032623 52.098633,229.024338 51.323196,229.010345 
	C51.506733,228.453247 52.022812,227.901871 52.766083,227.180206 
z"/>
<path fill="#123F62" opacity="1.000000" stroke="none" 
	d="
M136.499756,87.535141 
	C136.115753,87.345436 135.770889,87.141838 135.426010,86.938240 
	C135.521667,86.842216 135.617325,86.746201 135.712982,86.650177 
	C135.914383,86.823860 136.115784,86.997543 136.438553,87.306061 
	C136.559906,87.440895 136.538879,87.521248 136.499756,87.535141 
z"/>
<path fill="#173855" opacity="1.000000" stroke="none" 
	d="
M113.999924,117.000076 
	C113.999840,117.000145 114.024239,117.029182 114.012184,117.014519 
	C114.000130,116.999855 114.000000,117.000000 113.999924,117.000076 
z"/>
</svg>