<svg width="32" height="32" viewBox="0 0 32 32" fill="none" xmlns="http://www.w3.org/2000/svg">
  <!-- Simplified plant/leaf elements -->
  <path d="M16 3C14 1 12 2 11 4C12 6 14 5 16 3Z" fill="#123D60"/>
  <path d="M16 3C18 1 20 2 21 4C20 6 18 5 16 3Z" fill="#123D60"/>
  <path d="M12 6C10 4 8 5 9 7C11 8 13 7 12 6Z" fill="#113F62"/>
  <path d="M20 6C22 4 24 5 23 7C21 8 19 7 20 6Z" fill="#113F62"/>

  <!-- Simplified 'F' with circuit elements -->
  <rect x="7" y="10" width="3" height="12" rx="1.5" fill="#123D60"/>
  <rect x="7" y="10" width="9" height="3" rx="1.5" fill="#123D60"/>
  <rect x="7" y="16" width="7" height="2" rx="1" fill="#123D60"/>

  <!-- Circuit nodes -->
  <circle cx="11" cy="11.5" r="1" fill="#183D5C"/>
  <circle cx="14" cy="17" r="1" fill="#183D5C"/>

  <!-- Simplified 'J' with tech elements -->
  <path d="M19 10C21 10 22 11 22 13L22 19C22 21 21 22 19 22C17 22 16 21 16 19" stroke="#123D60" stroke-width="2.5" fill="none" stroke-linecap="round"/>

  <!-- Small circuit connections -->
  <circle cx="13" cy="27" r="1.2" fill="none" stroke="#19354E" stroke-width="1"/>
  <circle cx="20" cy="29" r="1.2" fill="none" stroke="#19354E" stroke-width="1"/>
  <path d="M16 23L13 27M16 23L20 29" stroke="#19354E" stroke-width="0.8" fill="none"/>
  <circle cx="16" cy="23" r="0.8" fill="#19354E"/>
</svg>