<?xml version="1.0" encoding="UTF-8"?>
<svg version="1.1" xmlns="http://www.w3.org/2000/svg" width="500" height="500">
<path d="M0 0 C12.00704362 -0.67751343 20.65664557 1.28157678 30 9 C30 9.66 30 10.32 30 11 C30.66 11 31.32 11 32 11 C40.20153162 20.1037001 46.21657177 31.03125863 49 43 C49.29132813 42.18917969 49.58265625 41.37835938 49.8828125 40.54296875 C56.17573595 23.5441598 64.3962055 10.71660888 80.0625 1.125 C85.80027681 -1.1781921 92.91149486 -0.21156968 99 0 C99.63050113 12.61002259 96.29182081 23.06820584 88.44140625 32.96484375 C82.37927133 39.60847842 74.24536922 43.04951008 66.125 46.5625 C60.50958524 49.06180015 56.26783357 52.11562127 54 58 C53.75827293 61.50869414 53.75827293 61.50869414 53.875 65.25 C53.89304687 66.51328125 53.91109375 67.7765625 53.9296875 69.078125 C53.95289063 70.04234375 53.97609375 71.0065625 54 72 C54.556875 70.80375 55.11375 69.6075 55.6875 68.375 C60.12609879 59.63650864 65.91363357 55.44128114 74.82421875 51.8671875 C78.46985407 50.87170037 81.60213937 50.80381395 85.375 50.875 C86.62023437 50.89304688 87.86546875 50.91109375 89.1484375 50.9296875 C90.08945313 50.95289063 91.03046875 50.97609375 92 51 C90.36715062 61.28695107 85.84923633 67.82366673 78.02734375 74.58984375 C72.56583355 78.38869767 66.63301159 78.67347009 60.1796875 79.4375 C56.85605254 79.80615424 56.85605254 79.80615424 54 82 C53.55156642 84.15934396 53.55156642 84.15934396 53.63110352 86.68994141 C53.62422012 87.66500641 53.61733673 88.64007141 53.61024475 89.64468384 C53.61948219 91.23208878 53.61948219 91.23208878 53.62890625 92.8515625 C53.61151293 95.08724103 53.59392867 97.32291808 53.57617188 99.55859375 C53.56612402 103.08710582 53.56249539 106.61551723 53.56420898 110.14404297 C53.56062507 113.54685407 53.53321614 116.94888995 53.50390625 120.3515625 C53.51208878 121.39768707 53.5202713 122.44381165 53.52870178 123.52163696 C53.45247778 131.07129348 52.14911912 136.33143855 47.10546875 142.20703125 C38.58047864 149.34302093 31.99202153 150.4462926 21 150 C20.71318012 156.13794547 21.2502978 161.03190481 25.328125 165.82421875 C31.29648834 171.45085708 37.67877077 171.1412058 45.45898438 171.03515625 C46.77709106 170.99479248 46.77709106 170.99479248 48.12182617 170.95361328 C50.82491887 170.87463716 53.52050764 170.87155615 56.22460938 170.87890625 C57.94797458 170.85859806 59.67129585 170.8340101 61.39453125 170.8046875 C62.19873001 170.80226044 63.00292877 170.79983337 63.83149719 170.79733276 C67.81463051 170.64535795 69.58076826 170.43358228 72.40356445 167.51416016 C72.93038818 166.6844873 73.45721191 165.85481445 74 165 C76.91891376 163.59892139 79.77039973 163.11774584 83 163 C86.7007947 164.30213147 89.54892832 165.90390946 92 169 C93.60288305 173.80864914 93.77236515 178.17071411 91.8125 182.8125 C89.27924909 185.86987179 87.09689007 187.68950715 83.07421875 188.28515625 C78.6109045 188.47848248 75.5096619 187.99353515 72 185 C71.01 182.525 71.01 182.525 70 180 C60.76 180.33 51.52 180.66 42 181 C47.85755761 188.45203528 47.85755761 188.45203528 55.96875 192.5546875 C57.83033941 192.4370596 59.6897645 192.27459777 61.54296875 192.0625 C64.45628572 191.98839337 65.42343113 192.52547198 67.625 194.375 C71.28759098 198.42312687 71.40151344 201.12895663 71.34765625 206.453125 C70.77336399 210.66029972 69.15372024 212.19669312 66 215 C63.01102263 216.76273024 61.46635491 217.02914718 58 216.8125 C54.71911238 215.92392627 52.64720344 215.14638116 50 213 C47.31998954 208.19446399 46.66543795 204.4645135 47 199 C46.34 198.67 45.68 198.34 45 198 C45 197.34 45 196.68 45 196 C44.34 196 43.68 196 43 196 C41.71069336 194.66088867 41.71069336 194.66088867 40.15234375 192.73046875 C37.01518 189.03045374 33.62915133 185.70829729 30.06640625 182.42578125 C28.44815999 180.90498204 26.83296356 179.3809921 25.21801758 177.85668945 C24.1120474 176.82509214 22.99568262 175.80453027 21.86938477 174.79516602 C12.45561992 166.32264084 12.45561992 166.32264084 11.28076172 160.33349609 C11.27772563 157.1330269 11.46844197 154.15263393 12 151 C8.37 151 4.74 151 1 151 C0.44438752 159.67345503 0.03965411 167.69363983 5.85644531 174.66650391 C8.05230248 176.99336769 10.31855311 179.2082194 12.68945312 181.35644531 C14.51419751 183.01288803 16.26485445 184.72679438 18.015625 186.4609375 C23.92319979 192.16943192 28.57341552 196.10938538 37 197 C39.65619365 199.21349471 41.45969742 200.91939484 43 204 C43.37889631 208.54675573 43.38594315 211.11065273 41.5625 215.3125 C38.14074425 218.90117066 34.9250854 220.40932253 30 221 C25.95049251 219.9378341 23.696694 218.60737426 20.5625 215.875 C18.40366526 211.90274408 18.49353378 208.4336551 19 204 C19.33 203.01 19.66 202.02 20 201 C19.505 200.54625 19.01 200.0925 18.5 199.625 C17 198 17 198 17 196 C16.34 196 15.68 196 15 196 C15 195.34 15 194.68 15 194 C14.43796875 193.7628125 13.8759375 193.525625 13.296875 193.28125 C10.48105958 191.71052303 8.52044584 189.78528536 6.25 187.5 C5.45078125 186.7059375 4.6515625 185.911875 3.828125 185.09375 C2 183 2 183 2 181 C1.34 181 0.68 181 0 181 C0 180.34 0 179.68 0 179 C-0.99 178.67 -1.98 178.34 -3 178 C-3 177.34 -3 176.68 -3 176 C-3.66 176 -4.32 176 -5 176 C-5 175.34 -5 174.68 -5 174 C-5.66 174 -6.32 174 -7 174 C-8.20029908 171.59940183 -8.11459743 170.10639351 -8.09765625 167.4296875 C-8.09443359 166.53378906 -8.09121094 165.63789063 -8.08789062 164.71484375 C-8.07951172 163.77769531 -8.07113281 162.84054687 -8.0625 161.875 C-8.05798828 160.93011719 -8.05347656 159.98523438 -8.04882812 159.01171875 C-8.03702375 156.6744523 -8.01908799 154.33721831 -8 152 C-13.28 152 -18.56 152 -24 152 C-24.87721685 147.61391574 -25.15421896 143.65948788 -25.16113281 139.23144531 C-25.16609772 138.46488617 -25.17106262 137.69832703 -25.17617798 136.90853882 C-25.19073856 134.38172494 -25.1975918 131.85497387 -25.203125 129.328125 C-25.20888198 127.56321207 -25.21463964 125.79829915 -25.22039795 124.03338623 C-25.23089094 120.33475454 -25.23674456 116.63614447 -25.24023438 112.9375 C-25.24571196 108.21561864 -25.26973144 103.49402665 -25.29820633 98.77223587 C-25.31690062 95.12607 -25.32204194 91.47997286 -25.32357025 87.83376312 C-25.32658258 86.09396535 -25.33456273 84.35416839 -25.34775543 82.61441803 C-25.48907894 62.54338758 -25.48907894 62.54338758 -20.203125 55.66015625 C-19.55859375 55.13292969 -18.9140625 54.60570312 -18.25 54.0625 C-17.61578125 53.51722656 -16.9815625 52.97195312 -16.328125 52.41015625 C-10.62661467 48.95672466 -4.73507542 48.69157365 1.75 48.69921875 C2.56694336 48.69493362 3.38388672 48.6906485 4.22558594 48.68623352 C5.94334999 48.6805209 7.66113823 48.67996717 9.37890625 48.68432617 C11.99260995 48.68749105 14.60518544 48.66397236 17.21875 48.63867188 C18.89583192 48.63639889 20.57291685 48.63569538 22.25 48.63671875 C23.02311523 48.627509 23.79623047 48.61829926 24.59277344 48.60881042 C30.52558295 48.65890657 35.46767056 49.6857185 39.99609375 53.82421875 C40.47175781 54.43910156 40.94742188 55.05398437 41.4375 55.6875 C42.17806641 56.62142578 42.17806641 56.62142578 42.93359375 57.57421875 C43.28550781 58.04472656 43.63742188 58.51523438 44 59 C42.99798095 54.69131809 41.63345006 51.93730541 38.0859375 49.203125 C35.42765149 47.66988138 32.7026615 46.71724875 29.8125 45.6875 C18.38618661 41.50523478 9.42449529 34.41601245 3.72265625 23.5703125 C0.96440036 17.58263958 -0.12890949 12.89094867 -0.0625 6.25 C-0.05347656 5.07953125 -0.04445313 3.9090625 -0.03515625 2.703125 C-0.02355469 1.81109375 -0.01195313 0.9190625 0 0 Z M-7 69 C-7 75.27 -7 81.54 -7 88 C5.54 88 18.08 88 31 88 C29 101 29 101 26 104 C22.67417322 105.24300857 19.29535792 105.16930544 15.7734375 105.24609375 C13.9790625 105.29540039 13.9790625 105.29540039 12.1484375 105.34570312 C9.62509627 105.40708876 7.1016516 105.4643556 4.578125 105.51757812 C3.38445312 105.55173828 2.19078125 105.58589844 0.9609375 105.62109375 C-0.13428223 105.6461499 -1.22950195 105.67120605 -2.35791016 105.69702148 C-5.15492137 105.74029191 -5.15492137 105.74029191 -7 108 C-7.24515697 110.50375468 -7.37333658 112.90549479 -7.4140625 115.4140625 C-7.43342865 116.14370209 -7.4527948 116.87334167 -7.4727478 117.62509155 C-7.53258422 119.95827502 -7.57894423 122.29150773 -7.625 124.625 C-7.66317614 126.20575082 -7.70222765 127.78648076 -7.7421875 129.3671875 C-7.83828878 133.2446223 -7.92230412 137.12215449 -8 141 C-2.43158861 141.07444911 3.13652964 141.12874318 8.70532227 141.16479492 C10.59762625 141.17983246 12.48989566 141.20026785 14.38208008 141.22631836 C17.11027586 141.26292399 19.83800871 141.2797769 22.56640625 141.29296875 C23.40522842 141.30845261 24.2440506 141.32393646 25.10829163 141.33988953 C30.50627848 141.34141788 34.21465257 140.54736668 39 138 C43.03424368 133.96575632 44.78518442 129.67893914 45.24050903 124.00064087 C45.23606781 122.94807098 45.23162659 121.8955011 45.22705078 120.81103516 C45.22682419 119.00984726 45.22682419 119.00984726 45.22659302 117.17227173 C45.21627045 115.89081268 45.20594788 114.60935364 45.1953125 113.2890625 C45.1915779 111.95242526 45.18873304 110.61578526 45.18673706 109.27914429 C45.17913577 105.77744868 45.15951788 102.2759215 45.1373291 98.77429199 C45.11679474 95.19460325 45.10771918 91.61488704 45.09765625 88.03515625 C45.07626829 81.02336873 45.04217516 74.01169247 45 67 C37.91588378 66.94941474 30.83181388 66.91431506 23.74755859 66.89013672 C21.33608256 66.88006046 18.92461878 66.86639919 16.51318359 66.84912109 C13.05302915 66.8249441 9.5930358 66.81353331 6.1328125 66.8046875 C4.50776291 66.78920364 4.50776291 66.78920364 2.84988403 66.77340698 C1.8489975 66.77325592 0.84811096 66.77310486 -0.18310547 66.77294922 C-1.06690887 66.768508 -1.95071228 66.76406677 -2.86129761 66.75949097 C-5.21481452 66.79904279 -5.21481452 66.79904279 -7 69 Z M80 171 C78.33378575 172.1645201 78.33378575 172.1645201 77 174 C77.23043864 176.65466049 77.23043864 176.65466049 78 179 C80.39719432 179.67958603 80.39719432 179.67958603 83 180 C85.28728734 178.16116119 85.28728734 178.16116119 85.125 175.375 C85.08375 174.59125 85.0425 173.8075 85 173 C82.525 172.01 82.525 172.01 80 171 Z M58 200 C57.01 200.99 56.02 201.98 55 203 C55.66 204.65 56.32 206.3 57 208 C58.66611905 208.042721 60.33382885 208.04063832 62 208 C63.29633621 206.93354885 63.29633621 206.93354885 63.0625 204.4375 C63.041875 203.633125 63.02125 202.82875 63 202 C60.525 201.01 60.525 201.01 58 200 Z M27 206 C27.33 207.65 27.66 209.3 28 211 C30.39719432 211.67958603 30.39719432 211.67958603 33 212 C33.66 211.34 34.32 210.68 35 210 C34.67958603 207.39719432 34.67958603 207.39719432 34 205 C30.51418144 203.7979936 30.32007656 203.78661563 27 206 Z " fill="#123D60" transform="translate(95,138)"/>
<path d="M0 0 C8.37010979 2.73609916 13.48476938 10.51135302 17.5 18 C19.93809205 23.22737742 21.26557904 28.2034487 21 34 C20.505 34.99 20.505 34.99 20 36 C19.34 36 18.68 36 18 36 C18 36.66 18 37.32 18 38 C17.34 38 16.68 38 16 38 C15.72929687 38.57234375 15.45859375 39.1446875 15.1796875 39.734375 C13.97595627 42.04617669 12.61072985 44.10993316 11.125 46.25 C7.34122504 51.8610614 4.37705356 57.6611905 2 64 C-1.29954435 62.35022782 -2.17523969 58.7228084 -3.6875 55.5 C-7.0691603 48.5029527 -10.69331387 41.71300744 -16.671875 36.55859375 C-18.96721586 33.86494374 -18.4618382 31.0747232 -18.34375 27.6796875 C-16.91262837 16.52344388 -8.5888223 6.66071934 0 0 Z " fill="#113F62" transform="translate(143,110)"/>
<path d="M0 0 C5.76872551 5.04553251 8.22507662 13.73894981 10 21 C10.99 19.68 11.98 18.36 13 17 C18.66153846 18.47692308 18.66153846 18.47692308 20.375 21.125 C20.684375 22.053125 20.684375 22.053125 21 23 C26.42077849 21.81728469 31.05571718 20.19333104 36.01953125 17.70703125 C38 17 38 17 41 18 C36.11652279 20.48761678 31.25890535 22.91679646 26.1875 25 C21.64064215 26.9922628 18.16753764 29.51898251 16 34.125 C14.59166894 36.76562074 12.59618859 37.63358496 10 39 C10.66 39.66 11.32 40.32 12 41 C11.625 43.625 11.625 43.625 11 46 C10.34 46 9.68 46 9 46 C8.22440172 54.47012907 7.88956717 62.90152655 7.75390625 71.40234375 C7.73725922 72.41624176 7.72061218 73.43013977 7.70346069 74.47476196 C7.63685 78.70323874 7.57476664 82.93171175 7.52319336 87.16040039 C7.48342082 90.28290225 7.43196249 93.40504321 7.37890625 96.52734375 C7.3704921 97.47536362 7.36207794 98.42338348 7.35340881 99.40013123 C7.12774418 111.53979579 7.12774418 111.53979579 3 116.3125 C2.34 116.869375 1.68 117.42625 1 118 C0.34 118.66 -0.32 119.32 -1 120 C-1.66 120 -2.32 120 -3 120 C-3.99 120.33 -4.98 120.66 -6 121 C-8.46465186 121.25974083 -10.90365107 121.46981553 -13.375 121.625 C-14.07947266 121.67003662 -14.78394531 121.71507324 -15.50976562 121.76147461 C-22.06295594 122.11611958 -28.47832116 121.72587179 -35 121 C-35 120.34 -35 119.68 -35 119 C-34.18845459 118.98541748 -33.37690918 118.97083496 -32.54077148 118.95581055 C-28.83921807 118.88102368 -25.13853621 118.78446239 -21.4375 118.6875 C-20.16068359 118.66494141 -18.88386719 118.64238281 -17.56835938 118.61914062 C-8.36238875 118.4061079 -8.36238875 118.4061079 0 115 C4.28422063 109.70109553 5.10748361 105.69111433 5.20532227 99.03808594 C5.22526749 97.83714294 5.24521271 96.63619995 5.26576233 95.39886475 C5.29083107 93.46119232 5.29083107 93.46119232 5.31640625 91.484375 C5.33698963 90.14487079 5.35798646 88.80537287 5.37937927 87.46588135 C5.43445709 83.94784659 5.48392906 80.4297546 5.53222656 76.91162109 C5.58254624 73.31863345 5.63812638 69.72572742 5.69335938 66.1328125 C5.80126198 59.08860456 5.90039578 52.04434976 6 45 C-19.245 45.495 -19.245 45.495 -45 46 C-45 45.01 -45 44.02 -45 43 C-29.49 43 -13.98 43 2 43 C2 41.02 2 39.04 2 37 C0.35 37 -1.3 37 -3 37 C-3.99 34.03 -4.98 31.06 -6 28 C-0.70841026 29.40071493 1.77478044 32.85487245 5 37 C3.99798095 32.69131809 2.63345006 29.93730541 -0.9140625 27.203125 C-3.57234851 25.66988138 -6.2973385 24.71724875 -9.1875 23.6875 C-15.67663974 21.3481316 -24.74265568 17.51468864 -28 11 C-26.35 10.67 -24.7 10.34 -23 10 C-22.731875 10.804375 -22.46375 11.60875 -22.1875 12.4375 C-21.795625 13.283125 -21.40375 14.12875 -21 15 C-20.01 15.33 -19.02 15.66 -18 16 C-18 16.66 -18 17.32 -18 18 C-16.948125 18.28875 -15.89625 18.5775 -14.8125 18.875 C-11 20 -11 20 -8.375 21.0625 C-6.00720988 22.09289011 -6.00720988 22.09289011 -3.375 22.4375 C-0.67347789 23.07733418 0.33530322 23.8096095 2 26 C2 26.66 2 27.32 2 28 C2.66 28 3.32 28 4 28 C4 28.66 4 29.32 4 30 C6.36095437 29.09096875 6.36095437 29.09096875 7.3125 25.875 C8.18196373 20.97438625 7.28220216 19.30107329 5 15 C4.67 15 4.34 15 4 15 C3.87882812 14.39671875 3.75765625 13.7934375 3.6328125 13.171875 C3.38144531 11.97304687 3.38144531 11.97304687 3.125 10.75 C2.88136719 9.56664062 2.88136719 9.56664062 2.6328125 8.359375 C2.00814942 6.03038426 1.08848668 4.14038556 0 2 C0 1.34 0 0.68 0 0 Z " fill="#183D5C" transform="translate(134,160)"/>
<path d="M0 0 C0 0.66 0 1.32 0 2 C-0.969375 2.28875 -1.93875 2.5775 -2.9375 2.875 C-6.10664203 3.64214682 -6.10664203 3.64214682 -7 6 C-7.928125 6.268125 -8.85625 6.53625 -9.8125 6.8125 C-13.58776801 8.21897239 -14.7079054 9.75945247 -17 13 C-17.556875 13.45375 -18.11375 13.9075 -18.6875 14.375 C-20.77240235 16.95630767 -20.69614499 19.77913685 -21 23 C-18.36 23.66 -15.72 24.32 -13 25 C-13.33 25.66 -13.66 26.32 -14 27 C-16.03125 27.59765625 -16.03125 27.59765625 -18.5 28.0625 C-21.53773221 28.45864843 -21.53773221 28.45864843 -24 30 C-24.10177439 31.5228074 -24.13568448 33.05022387 -24.1418457 34.57641602 C-24.14888016 35.55155655 -24.15591461 36.52669708 -24.16316223 37.53138733 C-24.16732651 38.59481857 -24.17149078 39.65824982 -24.17578125 40.75390625 C-24.19899328 42.9928478 -24.22311116 45.23178011 -24.24804688 47.47070312 C-24.28307718 51.01023406 -24.31245023 54.54942867 -24.32592773 58.08911133 C-24.34146139 61.49862914 -24.3817249 64.9071529 -24.42578125 68.31640625 C-24.42387283 69.36566788 -24.42196442 70.4149295 -24.41999817 71.49598694 C-24.54472854 79.03842317 -25.85552586 84.33684972 -30.89453125 90.20703125 C-38.38073595 96.47348773 -44.270987 98.52853793 -54 98 C-54 97.67 -54 97.34 -54 97 C-53.030625 96.87625 -52.06125 96.7525 -51.0625 96.625 C-49.5465625 96.315625 -49.5465625 96.315625 -48 96 C-47.505 95.01 -47.505 95.01 -47 94 C-44.93359375 93.5859375 -44.93359375 93.5859375 -42.4375 93.375 C-41.19806641 93.26285156 -41.19806641 93.26285156 -39.93359375 93.1484375 C-39.29550781 93.09945312 -38.65742188 93.05046875 -38 93 C-38 92.34 -38 91.68 -38 91 C-36.02 90.505 -36.02 90.505 -34 90 C-34 89.01 -34 88.02 -34 87 C-33.401875 86.835 -32.80375 86.67 -32.1875 86.5 C-28.8029901 84.17919321 -27.97273883 80.83131258 -27 77 C-26.5916113 73.19535505 -26.58246966 69.42156113 -26.59375 65.59765625 C-26.58291382 64.52051865 -26.57207764 63.44338104 -26.56091309 62.33360291 C-26.52681542 58.90984029 -26.51109388 55.48640964 -26.5 52.0625 C-26.48536622 47.55306951 -26.45157319 43.04437141 -26.40625 38.53515625 C-26.40927124 37.51301529 -26.41229248 36.49087433 -26.41540527 35.4377594 C-26.31548464 25.80711217 -23.79135738 16.83117045 -18 9 C-12.70290413 3.94368122 -7.5208089 0 0 0 Z " fill="#19354E" transform="translate(173,190)"/>
<path d="M0 0 C1.12588014 0.95729916 2.2506715 1.91587895 3.375 2.875 C4.00148438 3.40867187 4.62796875 3.94234375 5.2734375 4.4921875 C6.55836651 5.61432007 7.79371975 6.79371975 9 8 C11.03408189 8.4934134 11.03408189 8.4934134 13.3125 8.8125 C17.84861736 9.7255671 20.06227651 11.32784564 23 15 C24.60725635 18.21451269 24.05748185 21.43612536 24 25 C23.67 25 23.34 25 23 25 C22.87625 23.865625 22.7525 22.73125 22.625 21.5625 C22.41875 20.386875 22.2125 19.21125 22 18 C21.34 17.67 20.68 17.34 20 17 C19.67 16.01 19.34 15.02 19 14 C18.01 14.495 18.01 14.495 17 15 C16.67 14.01 16.34 13.02 16 12 C14.0509375 12.2784375 14.0509375 12.2784375 12.0625 12.5625 C9.84765625 12.87890625 9.84765625 12.87890625 8 13 C7.67 12.67 7.34 12.34 7 12 C6.67 12.99 6.34 13.98 6 15 C6.66 15 7.32 15 8 15 C8.625 16.875 8.625 16.875 9 19 C8.34 19.66 7.68 20.32 7 21 C7 20.34 7 19.68 7 19 C6.34 19.33 5.68 19.66 5 20 C4.45771907 21.82258553 4.45771907 21.82258553 4.25 23.9375 C4.15203125 24.64777344 4.0540625 25.35804688 3.953125 26.08984375 C3.78638288 28.2460808 3.78638288 28.2460808 6 30 C11.51224092 30.11896923 16.88481666 29.01915132 22 27 C21.02306084 29.48628432 20.4050344 30.75664939 18.08203125 32.15234375 C13.83341602 33.62217449 11.65037225 34.17058944 7.1875 33 C3.76173403 30.85049979 1.9332548 29.55718884 0 26 C-0.52390578 21.74887879 -0.35537843 18.06613529 1 14 C-0.37168238 11.80961577 -0.37168238 11.80961577 -2 10 C-0.68 9.67 0.64 9.34 2 9 C1.51421457 5.87709365 1.0013988 3.00419641 0 0 Z " fill="#173752" transform="translate(114,325)"/>
<path d="M0 0 C0.66 0 1.32 0 2 0 C2.02505615 0.9787207 2.0501123 1.95744141 2.07592773 2.96582031 C2.17023983 6.60380704 2.27040203 10.24161343 2.37231445 13.87939453 C2.41557338 15.45259374 2.45725474 17.02583717 2.49731445 18.59912109 C2.55523662 20.86309115 2.61886714 23.12684051 2.68359375 25.390625 C2.70866249 26.44240936 2.70866249 26.44240936 2.73423767 27.51544189 C2.83439561 30.83165329 3.18842037 33.79542259 4 37 C3.67 37.66 3.34 38.32 3 39 C8.61 39.33 14.22 39.66 20 40 C19.979375 42.619375 19.95875 45.23875 19.9375 47.9375 C19.91366304 54.03859916 20.12014174 59.95097448 21 66 C20.505 65.01 20.505 65.01 20 64 C19.34 64 18.68 64 18 64 C16.79970092 61.59940183 16.88540257 60.10639351 16.90234375 57.4296875 C16.90556641 56.53378906 16.90878906 55.63789063 16.91210938 54.71484375 C16.92048828 53.77769531 16.92886719 52.84054687 16.9375 51.875 C16.94201172 50.93011719 16.94652344 49.98523438 16.95117188 49.01171875 C16.96297625 46.6744523 16.98091201 44.33721831 17 42 C11.72 42 6.44 42 1 42 C0.06968682 37.34843409 -0.12862335 33.11901647 -0.09765625 28.41796875 C-0.09553383 27.19670036 -0.09553383 27.19670036 -0.09336853 25.95075989 C-0.08779317 23.36296844 -0.07524524 20.77526508 -0.0625 18.1875 C-0.05748181 16.42773563 -0.05291946 14.66796989 -0.04882812 12.90820312 C-0.03783181 8.60543506 -0.02058421 4.30273244 0 0 Z " fill="#0C273E" transform="translate(70,248)"/>
<path d="M0 0 C0.66 0.33 1.32 0.66 2 1 C1.67 7.27 1.34 13.54 1 20 C13.54 20 26.08 20 39 20 C39 29.73684211 39 29.73684211 37 35 C36.01 35.66 35.02 36.32 34 37 C33.01 36.67 32.02 36.34 31 36 C31 35.34 31 34.68 31 34 C31.639375 33.731875 32.27875 33.46375 32.9375 33.1875 C35.33131686 32.11332248 35.33131686 32.11332248 36 29 C35.34 28.67 34.68 28.34 34 28 C34 24 34 24 35 22 C23.45 22 11.9 22 0 22 C-1.1353654 19.72926921 -1.12892412 18.45716721 -1.1328125 15.9375 C-1.13410156 15.14085937 -1.13539062 14.34421875 -1.13671875 13.5234375 C-1.13285156 12.69070312 -1.12898438 11.85796875 -1.125 11 C-1.13080078 9.75089844 -1.13080078 9.75089844 -1.13671875 8.4765625 C-1.13542969 7.67992187 -1.13414063 6.88328125 -1.1328125 6.0625 C-1.13168457 5.33160156 -1.13055664 4.60070312 -1.12939453 3.84765625 C-1 2 -1 2 0 0 Z " fill="#18314A" transform="translate(87,206)"/>
<path d="M0 0 C1.25031761 0.00424484 1.25031761 0.00424484 2.52589417 0.00857544 C5.16454985 0.01968961 7.80285473 0.04477735 10.44140625 0.0703125 C12.24022944 0.08035365 14.039058 0.08947751 15.83789062 0.09765625 C20.2266958 0.11960015 24.61524173 0.15406863 29.00390625 0.1953125 C26.12360911 3.07560964 23.11957357 2.59857658 19.25 2.72265625 C17.6568947 2.79347726 16.06379595 2.86444568 14.47070312 2.93554688 C11.9652219 3.035942 9.45965263 3.13214095 6.95385742 3.22436523 C-5.81281108 3.62736115 -5.81281108 3.62736115 -17.99609375 7.1953125 C-17.99609375 7.8553125 -17.99609375 8.5153125 -17.99609375 9.1953125 C-18.65609375 9.1953125 -19.31609375 9.1953125 -19.99609375 9.1953125 C-19.99609375 9.8553125 -19.99609375 10.5153125 -19.99609375 11.1953125 C-20.98609375 11.1953125 -21.97609375 11.1953125 -22.99609375 11.1953125 C-23.65609375 14.8253125 -24.31609375 18.4553125 -24.99609375 22.1953125 C-25.65609375 21.8653125 -26.31609375 21.5353125 -26.99609375 21.1953125 C-26.48082818 13.72396174 -24.65707942 9.79716516 -19.18359375 4.4453125 C-13.15187276 0.18762709 -7.11636392 -0.0923928 0 0 Z " fill="#193750" transform="translate(96.99609375,186.8046875)"/>
<path d="M0 0 C3.09976002 0.27012764 6.20485989 0.41288197 9.3125 0.5625 C10.14845703 0.60568359 10.98441406 0.64886719 11.84570312 0.69335938 C13.89696935 0.79885307 15.9484648 0.89987315 18 1 C18 1.33 18 1.66 18 2 C17.27820557 2.02505615 16.55641113 2.0501123 15.81274414 2.07592773 C12.562465 2.19151302 9.31250312 2.31440774 6.0625 2.4375 C4.92619141 2.47681641 3.78988281 2.51613281 2.61914062 2.55664062 C0.99975586 2.61948242 0.99975586 2.61948242 -0.65234375 2.68359375 C-1.65257568 2.72025146 -2.65280762 2.75690918 -3.68334961 2.79467773 C-5.96069188 2.74671841 -5.96069188 2.74671841 -7 4 C-7.15971977 6.37338639 -7.2592433 8.72118272 -7.31640625 11.09765625 C-7.33718735 11.80651474 -7.35796844 12.51537323 -7.37937927 13.24571228 C-7.44494598 15.51787305 -7.5037923 17.79015264 -7.5625 20.0625 C-7.60567849 21.59962183 -7.64929255 23.1367315 -7.69335938 24.67382812 C-7.80063449 28.4490959 -7.90188137 32.2244836 -8 36 C-8.99 36.495 -8.99 36.495 -10 37 C-10.061875 36.2575 -10.12375 35.515 -10.1875 34.75 C-11.24188 31.18132923 -13.07395942 30.17577376 -16 28 C-16 27.34 -16 26.68 -16 26 C-15.34 25.67 -14.68 25.34 -14 25 C-12.75938546 21.82954062 -12 19.41761705 -12 16 C-12 15.34 -12 14.68 -12 14 C-11.34 14 -10.68 14 -10 14 C-10.33 13.01 -10.66 12.02 -11 11 C-11.06740865 9.43881572 -11.08514456 7.8749748 -11.0625 6.3125 C-11.05347656 5.50425781 -11.04445313 4.69601563 -11.03515625 3.86328125 C-11.01775391 2.94095703 -11.01775391 2.94095703 -11 2 C-6.6180543 -0.54764285 -4.83814681 -1.05177105 0 0 Z " fill="#153553" transform="translate(96,242)"/>
<path d="M0 0 C0.33 0 0.66 0 1 0 C1.04646363 7.83249371 1.08194021 15.66495475 1.10362434 23.49755192 C1.1140348 27.13505505 1.12814357 30.77246347 1.15087891 34.40991211 C1.1727055 37.92420309 1.1845892 41.43840331 1.18975449 44.95275688 C1.19521541 46.93737153 1.21081255 48.92194998 1.22659302 50.9065094 C1.22838944 65.42342471 1.22838944 65.42342471 -3 70.3125 C-3.66 70.869375 -4.32 71.42625 -5 72 C-5.66 72.66 -6.32 73.32 -7 74 C-7.66 74 -8.32 74 -9 74 C-10.485 74.495 -10.485 74.495 -12 75 C-14.46465186 75.25974083 -16.90365107 75.46981553 -19.375 75.625 C-20.07947266 75.67003662 -20.78394531 75.71507324 -21.50976562 75.76147461 C-28.06295594 76.11611958 -34.47832116 75.72587179 -41 75 C-41 74.34 -41 73.68 -41 73 C-40.18845459 72.98541748 -39.37690918 72.97083496 -38.54077148 72.95581055 C-34.83921807 72.88102368 -31.13853621 72.78446239 -27.4375 72.6875 C-26.16068359 72.66494141 -24.88386719 72.64238281 -23.56835938 72.61914062 C-14.36238875 72.4061079 -14.36238875 72.4061079 -6 69 C-1.74309922 63.73488588 -0.89355442 59.74049566 -0.79467773 53.12988281 C-0.77473251 51.94896057 -0.75478729 50.76803833 -0.73423767 49.55133057 C-0.71752518 48.28142273 -0.70081268 47.01151489 -0.68359375 45.703125 C-0.66281265 44.39921814 -0.64203156 43.09531128 -0.62062073 41.75189209 C-0.56554764 38.29304192 -0.5160736 34.8341336 -0.46777344 31.37518311 C-0.41745028 27.84251762 -0.36182078 24.30993611 -0.30664062 20.77734375 C-0.19923979 13.85163537 -0.09775503 6.92585106 0 0 Z " fill="#152F47" transform="translate(140,206)"/>
<path d="M0 0 C1 3 1 3 0.4375 6.375 C-0.04333954 10.35909904 0.00266321 11.58788298 2 15 C3.75784161 17.13422651 5.5697281 19.19535924 7.44140625 21.23046875 C9 23 9 23 10 25 C11.32 24.34 12.64 23.68 14 23 C14.93423645 26.01031744 15.04449911 26.86650268 14 30 C15.2488427 31.5833253 15.2488427 31.5833253 17 33 C18.32 33 19.64 33 21 33 C21.12375 32.21625 21.2475 31.4325 21.375 30.625 C22 28 22 28 24 26 C24.6425235 23.93125966 24.6425235 23.93125966 25 22 C26.32 21.67 27.64 21.34 29 21 C25.33333333 28.33333333 21.66666667 35.66666667 18 43 C14.70045565 41.35022782 13.82476031 37.7228084 12.3125 34.5 C8.94080359 27.52356916 5.33371013 20.66853602 -0.6796875 15.578125 C-2.51531496 13.38406141 -2.36770192 11.88629027 -2.3125 9.0625 C-2.30863281 8.20785156 -2.30476563 7.35320312 -2.30078125 6.47265625 C-1.98780141 3.89971808 -1.29573378 2.22494525 0 0 Z " fill="#183650" transform="translate(127,131)"/>
<path d="M0 0 C2.8203125 0.2421875 2.8203125 0.2421875 6.125 0.875 C7.22070312 1.07867187 8.31640625 1.28234375 9.4453125 1.4921875 C10.28835937 1.65976562 11.13140625 1.82734375 12 2 C13.125 9.625 13.125 9.625 12 13 C12.98189187 14.67739862 13.98133771 16.34467377 15 18 C14.67 18.66 14.34 19.32 14 20 C11.05148444 17.65511755 10.06964494 16.57666013 9.609375 12.765625 C9.65578125 11.60546875 9.7021875 10.4453125 9.75 9.25 C9.78609375 8.07953125 9.8221875 6.9090625 9.859375 5.703125 C9.90578125 4.81109375 9.9521875 3.9190625 10 3 C6.37 3 2.74 3 -1 3 C-1.71237976 9.99427398 -2.44705037 17.33496409 1.61767578 23.42285156 C5.94144619 28.4425821 10.869081 32.82180584 16 37 C14.02 37.495 14.02 37.495 12 38 C11.67 36.68 11.34 35.36 11 34 C10.34 34 9.68 34 9 34 C9 33.34 9 32.68 9 32 C8.34 32 7.68 32 7 32 C6.0409375 30.7625 6.0409375 30.7625 5.0625 29.5 C4.381875 28.675 3.70125 27.85 3 27 C2.01 27 1.02 27 0 27 C-2.59614748 22.08586369 -2.29633105 17.22165013 -2.25 11.8125 C-2.26160156 10.44061523 -2.26160156 10.44061523 -2.2734375 9.04101562 C-2.27085938 8.16767578 -2.26828125 7.29433594 -2.265625 6.39453125 C-2.26336914 5.59893799 -2.26111328 4.80334473 -2.25878906 3.98364258 C-2 2 -2 2 0 0 Z " fill="#1B364D" transform="translate(97,286)"/>
<path d="M0 0 C3.90285767 1.58667578 6.33520982 4.13350481 9.25 7.125 C10.14203125 8.03507812 11.0340625 8.94515625 11.953125 9.8828125 C12.62859375 10.58148438 13.3040625 11.28015625 14 12 C13.01 12.99 12.02 13.98 11 15 C10.34 14.67 9.68 14.34 9 14 C9.165 14.53625 9.33 15.0725 9.5 15.625 C10.09660212 18.45886009 10.0656368 21.1119806 10 24 C9.34 24.33 8.68 24.66 8 25 C8 23.02 8 21.04 8 19 C7.34 18.67 6.68 18.34 6 18 C6 17.34 6 16.68 6 16 C5.34 16 4.68 16 4 16 C3.34 14.35 2.68 12.7 2 11 C2.66 10.34 3.32 9.68 4 9 C3.67801034 5.90073181 3.67801034 5.90073181 3 3 C1.68 2.67 0.36 2.34 -1 2 C-0.67 1.34 -0.34 0.68 0 0 Z " fill="#173956" transform="translate(134,318)"/>
<path d="M0 0 C6.74692731 5.55629308 10.97059884 13.97311822 11.9375 22.625 C12.18965517 26.62068966 12.18965517 26.62068966 11 29 C10.34 29 9.68 29 9 29 C9 29.66 9 30.32 9 31 C8.34 31 7.68 31 7 31 C6.34 32.32 5.68 33.64 5 35 C4.505 33.515 4.505 33.515 4 32 C4.66 32 5.32 32 6 32 C6.309375 31.360625 6.61875 30.72125 6.9375 30.0625 C8 28 8 28 9 27 C9.35111062 21.38223003 8.38011717 16.43421134 7 11 C5.906875 10.79375 4.81375 10.5875 3.6875 10.375 C0 9 0 9 -1.9375 5.875 C-2.288125 4.92625 -2.63875 3.9775 -3 3 C-2.01 2.67 -1.02 2.34 0 2 C0 1.34 0 0.68 0 0 Z " fill="#1B3850" transform="translate(152,117)"/>
<path d="M0 0 C3.624581 1.20819367 3.40170957 1.80341913 5 5 C5.99 5.33 6.98 5.66 8 6 C8 6.66 8 7.32 8 8 C9.5778125 8.433125 9.5778125 8.433125 11.1875 8.875 C15 10 15 10 17.625 11.0625 C19.99279012 12.09289011 19.99279012 12.09289011 22.625 12.4375 C25.32652211 13.07733418 26.33530322 13.8096095 28 16 C28 16.66 28 17.32 28 18 C28.66 18 29.32 18 30 18 C30 18.66 30 19.32 30 20 C30.66 20 31.32 20 32 20 C32 20.99 32 21.98 32 23 C32.66 23.33 33.32 23.66 34 24 C33.34 25.32 32.68 26.64 32 28 C31.62875 26.948125 31.2575 25.89625 30.875 24.8125 C28.5522852 19.56527611 25.37115798 16.9311835 20.10546875 14.86328125 C18.47544922 14.28126953 18.47544922 14.28126953 16.8125 13.6875 C10.32336026 11.3481316 1.25734432 7.51468864 -2 1 C-1.34 0.67 -0.68 0.34 0 0 Z " fill="#19324B" transform="translate(108,170)"/>
<path d="M0 0 C1.6875 2.4375 1.6875 2.4375 3 6 C2.4986947 8.49399386 1.71182942 10.6896384 0.76171875 13.046875 C-0.12111509 14.96115073 -0.12111509 14.96115073 0 17 C-0.99 17.33 -1.98 17.66 -3 18 C-3.99 17.34 -4.98 16.68 -6 16 C-5 14 -5 14 -3 12 C-2.49989476 9.04230823 -2.49989476 9.04230823 -3 6 C-4.92022703 4.22590192 -4.92022703 4.22590192 -7 3 C-7 2.34 -7 1.68 -7 1 C-2.25 0 -2.25 0 0 0 Z " fill="#163E60" transform="translate(162,333)"/>
<path d="M0 0 C5.29700968 0.78152602 5.29700968 0.78152602 8 2 C10.04299109 5.34307633 11.19244101 7.49896016 10.6875 11.4375 C10.460625 11.953125 10.23375 12.46875 10 13 C8.68 13 7.36 13 6 13 C2 7.88888889 2 7.88888889 2 5 C1.34 4.67 0.68 4.34 0 4 C0 2.68 0 1.36 0 0 Z " fill="#133E61" transform="translate(106,322)"/>
<path d="M0 0 C0.66 0.33 1.32 0.66 2 1 C1.98839844 2.05058594 1.97679688 3.10117187 1.96484375 4.18359375 C1.90880054 11.53926481 1.95722857 18.70059996 3 26 C2.67 25.34 2.34 24.68 2 24 C1.34 24 0.68 24 0 24 C-1.1576202 21.68475961 -1.12902305 20.32883938 -1.1328125 17.75390625 C-1.13410156 16.91666016 -1.13539062 16.07941406 -1.13671875 15.21679688 C-1.13285156 14.34087891 -1.12898438 13.46496094 -1.125 12.5625 C-1.12886719 11.69044922 -1.13273437 10.81839844 -1.13671875 9.91992188 C-1.13542969 9.08138672 -1.13414063 8.24285156 -1.1328125 7.37890625 C-1.13168457 6.6113501 -1.13055664 5.84379395 -1.12939453 5.05297852 C-1 3 -1 3 0 0 Z " fill="#0C2C59" transform="translate(88,288)"/>
<path d="M0 0 C4.29 0 8.58 0 13 0 C13 0.66 13 1.32 13 2 C9.37 2 5.74 2 2 2 C2 5.96 2 9.92 2 14 C2.66 14 3.32 14 4 14 C4.33 17.3 4.66 20.6 5 24 C-0.82758466 16.22988712 -0.19539308 9.47656435 0 0 Z " fill="#1A3247" transform="translate(95,138)"/>
<path d="M0 0 C0.99 0 1.98 0 3 0 C4.6875 2.5 4.6875 2.5 6 5 C11.60461531 4.57910004 16.72086547 4.08386889 22 2 C21.02306084 4.48628432 20.4050344 5.75664939 18.08203125 7.15234375 C13.86536764 8.61112066 11.62741964 9.15428352 7.1875 8.0625 C3.47257926 5.65872776 2.1189131 3.81404357 0 0 Z " fill="#1B354B" transform="translate(114,350)"/>
<path d="M0 0 C-2.19284102 2.19284102 -3.39544959 2.56973879 -6.3125 3.4375 C-9.89439787 4.56620094 -12.82006852 5.97640724 -16 8 C-16.66 8 -17.32 8 -18 8 C-18.2475 8.598125 -18.495 9.19625 -18.75 9.8125 C-20.16370012 12.28647521 -21.65055383 13.43370255 -24 15 C-24.66 14.67 -25.32 14.34 -26 14 C-19.25461733 6.18329184 -10.80167943 -0.64104922 0 0 Z " fill="#1A354C" transform="translate(185,138)"/>
<path d="M0 0 C1.98 0.99 1.98 0.99 4 2 C4 2.66 4 3.32 4 4 C5.72722728 4.22384382 7.45696007 4.42839969 9.1875 4.625 C10.63189453 4.79902344 10.63189453 4.79902344 12.10546875 4.9765625 C15.24075323 5.00194942 17.19486535 4.34359283 20 3 C20 3.66 20 4.32 20 5 C16.41445657 7.91325404 13.40170207 8.47922481 8.9296875 8.28515625 C6.0003721 7.85228171 4.24356945 6.91363277 2 5 C0.6875 2.3125 0.6875 2.3125 0 0 Z " fill="#1B364A" transform="translate(165,318)"/>
<path d="M0 0 C0.99 0.33 1.98 0.66 3 1 C-1.86398014 3.47768508 -6.70771289 5.90405783 -11.75 8 C-15.8260282 9.76652021 -18.74338156 11.99389067 -22 15 C-22 13.35 -22 11.7 -22 10 C-16.52380279 6.56145756 -10.84868812 4.30164127 -4.79296875 2.05078125 C-2.09603369 1.09119108 -2.09603369 1.09119108 0 0 Z " fill="#1B344C" transform="translate(172,177)"/>
<path d="M0 0 C0.33 0.99 0.66 1.98 1 3 C-4.10741223 9.19510188 -8.35803424 14.19794589 -16 17 C-19 17.25 -19 17.25 -21 17 C-18 15 -18 15 -15.5625 14.125 C-12.68566056 12.86199732 -11.16280519 11.23738468 -9 9 C-8.34 9 -7.68 9 -7 9 C-6.34 8.01 -5.68 7.02 -5 6 C-4.34 6 -3.68 6 -3 6 C-2.690625 5.38125 -2.38125 4.7625 -2.0625 4.125 C-1.375 2.75 -0.6875 1.375 0 0 Z " fill="#193349" transform="translate(182,199)"/>
<path d="M0 0 C6.5186016 5.74167525 8.83303882 15.87829995 11 24 C9.68 24.33 8.36 24.66 7 25 C7.33 24.01 7.66 23.02 8 22 C7.07796291 19.63477442 6.08301035 17.29598193 5 15 C4.67 15 4.34 15 4 15 C3.87882813 14.39671875 3.75765625 13.7934375 3.6328125 13.171875 C3.46523437 12.37265625 3.29765625 11.5734375 3.125 10.75 C2.96257812 9.96109375 2.80015625 9.1721875 2.6328125 8.359375 C2.00814942 6.03038426 1.08848668 4.14038556 0 2 C0 1.34 0 0.68 0 0 Z " fill="#18354E" transform="translate(134,160)"/>
<path d="M0 0 C0.33 0.99 0.66 1.98 1 3 C3.97 3.495 3.97 3.495 7 4 C7 4.99 7 5.98 7 7 C8.49743119 8.49743119 9.98824239 8.33202693 12.0625 8.5625 C13.361875 8.706875 14.66125 8.85125 16 9 C13 11 13 11 10.125 10.8125 C5.3719287 9.57670146 2.73676151 8.10514227 0 4 C0 2.68 0 1.36 0 0 Z " fill="#1A344A" transform="translate(143,344)"/>
<path d="M0 0 C0.66 0.33 1.32 0.66 2 1 C0.25 4.875 0.25 4.875 -2 6 C-2 6.66 -2 7.32 -2 8 C-2.99 8 -3.98 8 -5 8 C-5.66 11.63 -6.32 15.26 -7 19 C-7.66 18.67 -8.32 18.34 -9 18 C-8.45019386 10.02781101 -5.92910927 5.50560147 0 0 Z " fill="#192F43" transform="translate(79,190)"/>
<path d="M0 0 C5.63689034 1.32632714 7.93185683 5.46631765 11 10 C8.36 9.67 5.72 9.34 3 9 C2.01 6.03 1.02 3.06 0 0 Z " fill="#193855" transform="translate(128,188)"/>
<path d="M0 0 C1.61070126 4.83210379 -0.79914026 8.5917883 -3 13 C-4.84893474 15.80264317 -6.84418751 18.42739709 -9 21 C-9 18 -9 18 -7.125 15.25 C-4.88869018 11.82976145 -4.06780614 8.91528917 -3 5 C-1.375 2.0625 -1.375 2.0625 0 0 Z " fill="#1B3145" transform="translate(192,150)"/>
<path d="M0 0 C4.29 0 8.58 0 13 0 C11.6328125 6.93359375 11.6328125 6.93359375 11 9 C10.01 9.495 10.01 9.495 9 10 C9.33 7.36 9.66 4.72 10 2 C6.7 2 3.4 2 0 2 C0 1.34 0 0.68 0 0 Z " fill="#1D3346" transform="translate(174,189)"/>
<path d="M0 0 C6.44807122 0.60830861 6.44807122 0.60830861 8.9375 2.375 C10 4 10 4 10 7 C10.66 7.33 11.32 7.66 12 8 C10.68 8.33 9.36 8.66 8 9 C7.79375 8.360625 7.5875 7.72125 7.375 7.0625 C6.10461791 4.65074923 6.10461791 4.65074923 2.875 4.25 C1.92625 4.1675 0.9775 4.085 0 4 C0 2.68 0 1.36 0 0 Z " fill="#163654" transform="translate(123,339)"/>
<path d="M0 0 C2.0625 1.75 2.0625 1.75 4 4 C3.75 6.25 3.75 6.25 3 8 C0.36 8.33 -2.28 8.66 -5 9 C-4.319375 8.1646875 -4.319375 8.1646875 -3.625 7.3125 C-1.96266232 4.94686561 -0.97855457 2.70984342 0 0 Z " fill="#183957" transform="translate(146,177)"/>
<path d="M0 0 C3.90285767 1.58667578 6.33520982 4.13350481 9.25 7.125 C10.14203125 8.03507812 11.0340625 8.94515625 11.953125 9.8828125 C12.62859375 10.58148438 13.3040625 11.28015625 14 12 C13.34 12.66 12.68 13.32 12 14 C11.60167969 13.51789063 11.20335937 13.03578125 10.79296875 12.5390625 C10.26316406 11.90742188 9.73335937 11.27578125 9.1875 10.625 C8.66542969 9.99851562 8.14335937 9.37203125 7.60546875 8.7265625 C5.91774261 6.7778952 5.91774261 6.7778952 3 5 C3 4.34 3 3.68 3 3 C1.68 2.67 0.36 2.34 -1 2 C-0.67 1.34 -0.34 0.68 0 0 Z " fill="#173249" transform="translate(134,318)"/>
<path d="M0 0 C2.3125 0.125 2.3125 0.125 5 1 C6.8125 4.0625 6.8125 4.0625 8 7 C7.01 7.495 7.01 7.495 6 8 C5.01 7.67 4.02 7.34 3 7 C2.6278958 5.67696283 2.29369827 4.34262065 2 3 C1.34 2.67 0.68 2.34 0 2 C0 1.34 0 0.68 0 0 Z " fill="#133F66" transform="translate(115,305)"/>
<path d="M0 0 C0.66 0 1.32 0 2 0 C2.33 0.66 2.66 1.32 3 2 C3.99 2.33 4.98 2.66 6 3 C6.33 2.01 6.66 1.02 7 0 C8 3 8 3 6.5625 6.1875 C5.7890625 7.5796875 5.7890625 7.5796875 5 9 C2.38952199 7.694761 2.31933577 6.64173426 1.375 3.9375 C1.11460937 3.20402344 0.85421875 2.47054687 0.5859375 1.71484375 C0.39257812 1.14894531 0.19921875 0.58304688 0 0 Z " fill="#1E344C" transform="translate(140,165)"/>
<path d="M0 0 C1.32 0.66 2.64 1.32 4 2 C3.67 2.66 3.34 3.32 3 4 C1.35 4 -0.3 4 -2 4 C-2 4.66 -2 5.32 -2 6 C-3.98 6.66 -5.96 7.32 -8 8 C-3.375 2.25 -3.375 2.25 0 0 Z " fill="#182C41" transform="translate(143,110)"/>
<path d="M0 0 C2.64 0 5.28 0 8 0 C8.05399736 1.45792884 8.09279177 2.91642712 8.125 4.375 C8.14820313 5.18710938 8.17140625 5.99921875 8.1953125 6.8359375 C8 9 8 9 6 11 C5.67 8.03 5.34 5.06 5 2 C3.35 1.67 1.7 1.34 0 1 C0 0.67 0 0.34 0 0 Z " fill="#1B3246" transform="translate(186,138)"/>
<path d="M0 0 C3.43927579 1.2419607 6.25207819 2.55740284 9 5 C9 5.66 9 6.32 9 7 C9.66 7 10.32 7 11 7 C11.66 8.32 12.32 9.64 13 11 C11.0625 10.1875 11.0625 10.1875 9 9 C8.67 8.01 8.34 7.02 8 6 C5.49552484 4.78130071 5.49552484 4.78130071 3 4 C3 3.34 3 2.68 3 2 C2.01 2 1.02 2 0 2 C0 1.34 0 0.68 0 0 Z " fill="#1B3146" transform="translate(116,142)"/>
<path d="M0 0 C5.62917348 0.40208382 8.00386479 2.28930302 12 6 C11.67 6.66 11.34 7.32 11 8 C10.46375 7.360625 9.9275 6.72125 9.375 6.0625 C6.55632807 3.61470596 4.66139268 3.33285388 1 3 C0.67 2.01 0.34 1.02 0 0 Z " fill="#1C3043" transform="translate(175,301)"/>
<path d="M0 0 C5.75 0.875 5.75 0.875 8 2 C8 2.99 8 3.98 8 5 C6.35 5 4.7 5 3 5 C2.67 4.01 2.34 3.02 2 2 C1.34 2 0.68 2 0 2 C0 1.34 0 0.68 0 0 Z " fill="#163B56" transform="translate(108,139)"/>
<path d="M0 0 C2.75 2.4375 2.75 2.4375 5 5 C1.66666667 5 -1.66666667 5 -5 5 C-4.67 3.68 -4.34 2.36 -4 1 C-2.3125 0.1875 -2.3125 0.1875 0 0 Z " fill="#163853" transform="translate(147,112)"/>
<path d="M0 0 C1.5625 1.8125 1.5625 1.8125 3 4 C2.67 4.99 2.34 5.98 2 7 C2.98189187 8.67739862 3.98133771 10.34467377 5 12 C4.67 12.66 4.34 13.32 4 14 C2 12.625 2 12.625 0 10 C-0.35791096 6.6419531 -0.23115823 3.36463643 0 0 Z " fill="#1B3247" transform="translate(107,292)"/>
<path d="M0 0 C0 0.66 0 1.32 0 2 C-0.5775 2.2475 -1.155 2.495 -1.75 2.75 C-4.3002997 4.16683317 -6.01785701 5.87627537 -8 8 C-8.66 7.67 -9.32 7.34 -10 7 C-4.34042553 0 -4.34042553 0 0 0 Z " fill="#1B3649" transform="translate(174,302)"/>
<path d="M0 0 C7.50769231 -0.36923077 7.50769231 -0.36923077 10 1.5 C10.495 2.2425 10.495 2.2425 11 3 C8.69 3.33 6.38 3.66 4 4 C4.33 3.01 4.66 2.02 5 1 C3.35 1 1.7 1 0 1 C0 0.67 0 0.34 0 0 Z " fill="#19344E" transform="translate(151,330)"/>
<path d="M0 0 C1 3 1 3 0.22265625 5.04296875 C-0.16019531 5.75066406 -0.54304687 6.45835938 -0.9375 7.1875 C-1.31777344 7.90292969 -1.69804687 8.61835937 -2.08984375 9.35546875 C-2.54037109 10.16951172 -2.54037109 10.16951172 -3 11 C-3.66 10.67 -4.32 10.34 -5 10 C-3.66511872 6.40608886 -2.03977277 3.24509304 0 0 Z " fill="#19354D" transform="translate(134,118)"/>
<path d="M0 0 C0 0.99 0 1.98 0 3 C-3.20807554 5.38314183 -6.06380262 6.43768609 -10 7 C-10.33 6.34 -10.66 5.68 -11 5 C-10.45730469 4.80664062 -9.91460937 4.61328125 -9.35546875 4.4140625 C-8.64003906 4.15367187 -7.92460938 3.89328125 -7.1875 3.625 C-6.47980469 3.36976563 -5.77210938 3.11453125 -5.04296875 2.8515625 C-2.75226641 1.9734231 -2.75226641 1.9734231 0 0 Z " fill="#172A3A" transform="translate(135,352)"/>
<path d="M0 0 C1.65 0 3.3 0 5 0 C5.103125 0.598125 5.20625 1.19625 5.3125 1.8125 C6.08876455 4.28243264 7.07088921 5.32251235 9 7 C8.67 7.66 8.34 8.32 8 9 C6.66368764 7.6905332 5.33102075 6.37734515 4 5.0625 C3.2575 4.33160156 2.515 3.60070312 1.75 2.84765625 C0 1 0 1 0 0 Z " fill="#1E3850" transform="translate(126,320)"/>
<path d="M0 0 C2.39763185 2.39763185 2.34280586 3.33273498 2.625 6.625 C2.69976562 7.44226563 2.77453125 8.25953125 2.8515625 9.1015625 C2.90054688 9.72804688 2.94953125 10.35453125 3 11 C2.67 10.34 2.34 9.68 2 9 C1.34 9 0.68 9 0 9 C0 6.03 0 3.06 0 0 Z " fill="#16304F" transform="translate(88,303)"/>
<path d="M0 0 C2.475 0.99 2.475 0.99 5 2 C3.625 4 3.625 4 2 6 C1.34 6 0.68 6 0 6 C-1 3 -1 3 0 0 Z " fill="#193B58" transform="translate(177,169)"/>
<path d="M0 0 C2.97246802 2.54782974 4.41535288 5.45340883 6 9 C6 9.66 6 10.32 6 11 C5.34 11 4.68 11 4 11 C2.03810791 7.3321148 0.60698743 4.12751449 0 0 Z " fill="#152B41" transform="translate(134,160)"/>
<path d="M0 0 C0.66 0 1.32 0 2 0 C2.33 1.65 2.66 3.3 3 5 C2.34 5 1.68 5 1 5 C1 5.66 1 6.32 1 7 C0.34 7 -0.32 7 -1 7 C-1.04254356 5.00045254 -1.04080783 2.99958364 -1 1 C-0.67 0.67 -0.34 0.34 0 0 Z " fill="#154163" transform="translate(182,308)"/>
<path d="M0 0 C0.66 0 1.32 0 2 0 C2.33 3.3 2.66 6.6 3 10 C2.01 9.67 1.02 9.34 0 9 C0 6.03 0 3.06 0 0 Z " fill="#0B3345" transform="translate(70,210)"/>
<path d="M0 0 C0.86625 0.556875 0.86625 0.556875 1.75 1.125 C0.375 2.625 0.375 2.625 -1.25 4.125 C-1.91 4.125 -2.57 4.125 -3.25 4.125 C-3.25 3.465 -3.25 2.805 -3.25 2.125 C-4.24 1.795 -5.23 1.465 -6.25 1.125 C-2.80384615 -1.09038462 -2.80384615 -1.09038462 0 0 Z " fill="#132E4C" transform="translate(98.25,314.875)"/>
<path d="M0 0 C0.33 0 0.66 0 1 0 C1.36923077 7.50769231 1.36923077 7.50769231 -0.5 10 C-0.995 10.33 -1.49 10.66 -2 11 C-1.125 3.375 -1.125 3.375 0 0 Z " fill="#1F334F" transform="translate(187,310)"/>
<path d="M0 0 C1.0625 1.875 1.0625 1.875 2 4 C1.67 4.66 1.34 5.32 1 6 C1.99 6.33 2.98 6.66 4 7 C2.35 7 0.7 7 -1 7 C-1.625 5.1875 -1.625 5.1875 -2 3 C-1.34 2.01 -0.68 1.02 0 0 Z " fill="#133352" transform="translate(72,281)"/>
<path d="M0 0 C0.66 0.66 1.32 1.32 2 2 C1.625 4.125 1.625 4.125 1 6 C-0.65 4.35 -2.3 2.7 -4 1 C-2.125 0.375 -2.125 0.375 0 0 Z " fill="#133148" transform="translate(116,334)"/>
<path d="M0 0 C3.25543229 0.34879632 4.01873107 1.02133261 6.25 3.5625 C6.8275 4.366875 7.405 5.17125 8 6 C7.67 6.66 7.34 7.32 7 8 C5.83035398 6.8572081 4.66435444 5.71068285 3.5 4.5625 C2.8503125 3.92441406 2.200625 3.28632813 1.53125 2.62890625 C0 1 0 1 0 0 Z " fill="#1B314C" transform="translate(118,312)"/>
<path d="M0 0 C3.65316671 1.24976756 4.78065836 1.67098753 7 5 C6.01 5.33 5.02 5.66 4 6 C0 1.125 0 1.125 0 0 Z " fill="#1A304D" transform="translate(128,188)"/>
<path d="M0 0 C1.65 1.32 3.3 2.64 5 4 C4.34 4.66 3.68 5.32 3 6 C0.875 5.625 0.875 5.625 -1 5 C-0.67 3.35 -0.34 1.7 0 0 Z " fill="#113958" transform="translate(145,189)"/>
</svg>